<svg width="24" height="24" fill="none" xmlns="http://www.w3.org/2000/svg"><path fill-rule="evenodd" clip-rule="evenodd" d="M12.147 3.61a.408.408 0 0 0-.454.113A12.885 12.885 0 0 0 9.12 9.13l-.002.009a12.713 12.713 0 0 0 .006 5.532l.002.009c.422 1.972 1.3 3.82 2.565 5.394a.414.414 0 0 0 .292.142.404.404 0 0 0 .304-.12l.003-.002 1.49-1.49a.403.403 0 0 0 .062-.553c-.458-.6-.849-1.249-1.163-1.935v-.002a.41.41 0 0 0-.369-.24l-1.259-.002a1 1 0 0 1-.963-.734 12.251 12.251 0 0 1-.006-6.497 1 1 0 0 1 .965-.736l1.26.001a.404.404 0 0 0 .363-.236l.001-.003c.313-.686.702-1.334 1.16-1.933a.405.405 0 0 0-.043-.532l-.008-.007-1.492-1.493a.411.411 0 0 0-.141-.092Zm-.255-2.025a2.408 2.408 0 0 1 1.809.702l1.49 1.49a2.41 2.41 0 0 1 .237 3.162l-.006.007c-.367.48-.68 1-.93 1.55l-.91-.414.91.413a2.402 2.402 0 0 1-2.178 1.411h-.476a10.251 10.251 0 0 0 .004 3.967h.48a2.41 2.41 0 0 1 2.177 1.412c.252.55.565 1.072.934 1.552l.006.008a2.409 2.409 0 0 1-.252 3.18l-1.48 1.48s0 .002-.002.002a2.4 2.4 0 0 1-2.773.459 2.411 2.411 0 0 1-.781-.616l-.012-.014a14.947 14.947 0 0 1-2.968-6.233 14.713 14.713 0 0 1-.006-6.393 14.885 14.885 0 0 1 2.978-6.251l.01-.012a2.404 2.404 0 0 1 1.739-.862Z" fill="#fff"/></svg>