<svg width="54" height="56" fill="none" xmlns="http://www.w3.org/2000/svg"><path d="m47.52 18.45-9.78-1.73L36.28 14v-3.73a9.28 9.28 0 1 0-18.56 0V14l-1.46 2.76-9.75 1.73A6.66 6.66 0 0 0 1.09 23a7 7 0 0 0 1.66 7.2l6.88 6.95-1.46 9.94a6.9 6.9 0 0 0 9.94 7.17L27 49.77l8.9 4.49A6.84 6.84 0 0 0 39 55a7.26 7.26 0 0 0 4-1.3 6.88 6.88 0 0 0 2.79-6.6l-1.45-10 6.88-6.95a7 7 0 0 0-3.74-11.75l.04.05Zm-27.8-4.2c.662.102 1.33.156 2 .16A11 11 0 0 0 27 13.06a11.15 11.15 0 0 0 5.32 1.35c.67-.006 1.339-.063 2-.17v1.57a7.28 7.28 0 1 1-14.56 0l-.04-1.56Zm14.56-2a9.82 9.82 0 0 1-5.36-.46 17 17 0 0 0 4.22-5.39 7.24 7.24 0 0 1 1.14 3.9v1.95ZM27 3a7.24 7.24 0 0 1 4.71 1.74c-2.17 5.16-6.43 8.48-12 7.5v-2A7.29 7.29 0 0 1 27 3Zm9.8 49.48-1.18-.59v-10.3a1 1 0 0 0-2 0v9.28l-6.17-3.11a1 1 0 0 0-.9 0l-6.16 3.11v-9.28a1 1 0 0 0-2 0v10.29l-1.18.59a4.8 4.8 0 0 1-2.49.53V30.49a2 2 0 0 1 1.06-1.74l8.46 10.9a3.489 3.489 0 0 0 5.53 0l8.46-10.9a2 2 0 0 1 1.05 1.74V53a4.76 4.76 0 0 1-2.48-.53v.01Zm-6.69-21.1-.61-2.86h2.83l-2.22 2.86Zm-2.65-2.86 1 4.93L27 35.38l-1.5-1.94 1-4.93.96.01Zm-3.57 2.86-2.22-2.86h2.83l-.61 2.86Zm-4.75-2.86 7.07 9.11a1 1 0 0 0 1.58 0l7.08-9.11h1l-7.7 9.92a1.54 1.54 0 0 1-2.37 0l-7.7-9.92h1.04Zm30.69.28-7.23 7.3a1 1 0 0 0-.27.85l1.53 10.44a4.83 4.83 0 0 1-2 4.68c-.188.136-.385.26-.59.37V30.49a4 4 0 0 0-4-4H16.71a4 4 0 0 0-4 4v21.95a5.274 5.274 0 0 1-.59-.37 4.83 4.83 0 0 1-2-4.69L11.68 37a1.001 1.001 0 0 0-.28-.85l-7.23-7.36A5 5 0 0 1 3 23.67a4.72 4.72 0 0 1 3.84-3.25l10.26-1.81a1 1 0 0 0 .72-.52l.14-.27a9.27 9.27 0 0 0 18.11 0l.14.27a.999.999 0 0 0 .71.52l10.26 1.81a5 5 0 0 1 2.66 8.37l-.01.01Z" fill="#E53935"/><path d="M27 43a.81.81 0 1 0 0 1.62.81.81 0 0 0 0-1.62Z" fill="#E53935"/></svg>