<svg width="64" height="64" fill="none" xmlns="http://www.w3.org/2000/svg"><path d="M47.351 53.773 41.05 50.04M43.43 56.602l-4.643-2.75M38.678 58.939l-1.82-1.078M11.218 18.165H41.87M11.218 11.634h15.326M11.218 23.953H41.87" stroke="#E53935" stroke-width="2" stroke-miterlimit="10" stroke-linecap="round" stroke-linejoin="round"/><mask id="a" style="mask-type:luminance" maskUnits="userSpaceOnUse" x="0" y="0" width="64" height="64"><path d="M63 63V1H1v62h62Z" fill="#fff" stroke="#fff" stroke-width="2"/></mask><g mask="url(#a)" stroke="#E53935" stroke-width="2" stroke-miterlimit="10" stroke-linecap="round" stroke-linejoin="round"><path d="M37.863 1.201v6.571a3.862 3.862 0 0 0 3.862 3.862h6.57"/><path d="M48.56 28.88V12.847c0-.776-.309-1.52-.857-2.069L38.72 1.795a2.926 2.926 0 0 0-2.068-.857H8.39a3.862 3.862 0 0 0-3.862 3.861v49.743a3.862 3.862 0 0 0 3.862 3.862h9.81"/><path d="m23.467 33.862-1.94-1.15a1.124 1.124 0 0 0-1.54.394l-7.978 13.467a1.123 1.123 0 0 0 .393 1.54l1.941 1.15a2.74 2.74 0 0 0 3.753-.961l6.331-10.687a2.74 2.74 0 0 0-.96-3.753ZM50.258 43.293l2.968 5.009a2.74 2.74 0 0 0 3.753.96l1.94-1.15a1.124 1.124 0 0 0 .395-1.539l-7.979-13.467a1.123 1.123 0 0 0-1.54-.394l-1.94 1.15a2.74 2.74 0 0 0-.96 3.753l1.119 1.89"/><path d="m35.564 38.304-.32-.19c-1.841-1.056-2.702-1.251-4.363-.61l-1.81.7a3.855 3.855 0 0 1-3.353-.278l-1.12-.66M17.664 48.85l1.876 1.108M33.415 60.974l3.003 1.779a2.216 2.216 0 0 0 2.26-3.814l2.492 1.477a2.216 2.216 0 1 0 2.26-3.814l1.66.985a2.216 2.216 0 0 0 2.26-3.814l2.034 1.205a2.216 2.216 0 0 0 2.259-3.814"/><path d="m46.989 37.774-.261.152a3.853 3.853 0 0 1-3.353.279l-2.042-.802a3.28 3.28 0 0 0-2.004-.127l-3.128.791a3.28 3.28 0 0 0-2.475 3.18v4.176c0 .59.478 1.07 1.068 1.07a3.221 3.221 0 0 0 3.224-3.22v-.178l13.387 7.928c.248-.265.533-.493.845-.678l1.897-1.108M21.66 54.553a2.216 2.216 0 1 1-3.6-2.584l1.255-1.748a2.216 2.216 0 1 1 3.6 2.584"/><path d="m27.9 53.46-2.641 3.677a2.216 2.216 0 1 1-3.6-2.584l2.64-3.677a2.216 2.216 0 0 1 3.6 2.584Z"/><path d="M27.9 53.46a2.215 2.215 0 1 1 3.6 2.584l-2.64 3.678a2.216 2.216 0 0 1-3.6-2.585"/><path d="M30.326 57.678a2.216 2.216 0 0 1 3.6 2.584l-.878 1.223a2.216 2.216 0 1 1-3.6-2.584"/></g></svg>