<svg width="10" height="22" fill="none" xmlns="http://www.w3.org/2000/svg"><path fill-rule="evenodd" clip-rule="evenodd" d="M6.147 2.61a.408.408 0 0 0-.454.113A12.885 12.885 0 0 0 3.12 8.13l-.001.009a12.712 12.712 0 0 0 .005 5.532l.002.009c.423 1.972 1.3 3.82 2.565 5.394a.412.412 0 0 0 .457.114c.052-.02.1-.051.14-.091l.002-.003 1.49-1.49a.403.403 0 0 0 .062-.553c-.458-.6-.849-1.249-1.163-1.935v-.002a.41.41 0 0 0-.369-.24l-1.259-.002a1 1 0 0 1-.963-.734 12.252 12.252 0 0 1-.006-6.497 1 1 0 0 1 .965-.736l1.26.001a.404.404 0 0 0 .363-.236l.001-.003c.313-.686.702-1.334 1.16-1.933a.404.404 0 0 0-.043-.532l-.007-.007-1.493-1.493a.411.411 0 0 0-.141-.092ZM5.892.585a2.408 2.408 0 0 1 1.809.702l1.49 1.49a2.41 2.41 0 0 1 .237 3.162l-.006.007c-.367.48-.68 1-.93 1.55l-.91-.414.91.413a2.402 2.402 0 0 1-2.178 1.411h-.476a10.252 10.252 0 0 0 .004 3.967h.48a2.41 2.41 0 0 1 2.177 1.412c.252.55.565 1.072.934 1.553l.006.007a2.409 2.409 0 0 1-.252 3.18l-1.48 1.48-.001.002a2.401 2.401 0 0 1-2.774.459 2.41 2.41 0 0 1-.781-.616l-.012-.014a14.948 14.948 0 0 1-2.968-6.233 14.713 14.713 0 0 1-.006-6.393 14.885 14.885 0 0 1 2.978-6.251l.01-.012A2.402 2.402 0 0 1 5.892.585Z" fill="#E53935"/></svg>