<svg width="64" height="64" fill="none" xmlns="http://www.w3.org/2000/svg"><path fill-rule="evenodd" clip-rule="evenodd" d="M21.924 39.15H35.48a1.01 1.01 0 0 0 0-2.021H21.924a1.01 1.01 0 0 0 0 2.02Z" fill="#E53935"/><path fill-rule="evenodd" clip-rule="evenodd" d="M30.454 38.14v24.328a1.01 1.01 0 0 0 2.021 0V38.139a1.011 1.011 0 0 0-2.02 0ZM8.814.52A7.131 7.131 0 0 0 1.687 7.65a7.13 7.13 0 0 0 7.127 7.127 7.13 7.13 0 0 0 7.127-7.127A7.131 7.131 0 0 0 8.814.52Zm0 2.021A5.109 5.109 0 0 1 13.92 7.65a5.108 5.108 0 0 1-5.106 5.106 5.108 5.108 0 0 1-5.106-5.106 5.108 5.108 0 0 1 5.106-5.107ZM55.186.522a7.131 7.131 0 0 0-7.127 7.127 7.13 7.13 0 0 0 7.127 7.127 7.13 7.13 0 0 0 7.127-7.127A7.131 7.131 0 0 0 55.186.52Zm0 2.02a5.108 5.108 0 0 1 5.106 5.107 5.108 5.108 0 0 1-5.106 5.106 5.108 5.108 0 0 1-5.106-5.106 5.109 5.109 0 0 1 5.106-5.107ZM14.384 29.276a1.009 1.009 0 0 0 .905.561l.375-.072 9.305-3.72a2.796 2.796 0 0 1 3.632 1.558 2.796 2.796 0 0 1-1.558 3.63l-12.288 4.913a2.794 2.794 0 0 1-3.257-.897 1.01 1.01 0 0 0-1.814.613v5.075a1.01 1.01 0 0 0 .894 1.004l8.18.944a3.831 3.831 0 0 1 3.392 3.807v15.776a1.01 1.01 0 0 0 2.02 0V46.692a5.852 5.852 0 0 0-5.18-5.814l-7.285-.842v-2.11a4.81 4.81 0 0 0 3.8.097l12.289-4.912a4.818 4.818 0 0 0 2.683-6.259 4.817 4.817 0 0 0-6.258-2.684l-8.513 3.403-4.89-8.004a4.814 4.814 0 0 0-3.112-2.2l-.12-.025a4.814 4.814 0 0 0-5.795 4.345L.003 45.174a5.852 5.852 0 0 0 5.17 5.89l7.292.941v10.462a1.01 1.01 0 0 0 2.021 0v-11.35a1.01 1.01 0 0 0-.881-1.003l-8.192-1.057a3.832 3.832 0 0 1-3.392-3.765L3.803 21.84a2.793 2.793 0 0 1 3.363-2.52l.12.024a2.793 2.793 0 0 1 1.805 1.277l5.231 8.563c.02.032.04.063.062.092Z" fill="#E53935"/><path fill-rule="evenodd" clip-rule="evenodd" d="m6.361 30.746 3.247 5.316a4.815 4.815 0 0 0 5.896 1.96 1.01 1.01 0 0 0-.75-1.876 2.794 2.794 0 0 1-3.421-1.138l-3.247-5.316a1.012 1.012 0 0 0-1.725 1.054Zm40.998-1.644-9.785 1.384a4.817 4.817 0 0 0-4.093 5.442 4.818 4.818 0 0 0 5.442 4.093l12.034-1.702a4.8 4.8 0 0 0 1.338-.393v2.11l-7.284.841a5.852 5.852 0 0 0-5.181 5.814v15.777a1.01 1.01 0 0 0 2.02 0V46.69a3.832 3.832 0 0 1 3.393-3.806l8.176-.945h-.002a1.01 1.01 0 0 0 .899-1.003V35.86a1.01 1.01 0 0 0-1.814-.613 2.792 2.792 0 0 1-1.828 1.07L38.64 38.02a2.794 2.794 0 0 1-.783-5.533l10.254-1.45-.139.01.863-.484 5.467-8.95a3.572 3.572 0 0 1 3.318-1.7l.056.004a3.573 3.573 0 0 1 3.3 3.4l1.003 21.956a3.832 3.832 0 0 1-3.392 3.785l-8.022.926a1.009 1.009 0 0 0-.894.99l-.157 11.48a1.012 1.012 0 0 0 2.02.027l.146-10.592 7.139-.824a5.853 5.853 0 0 0 5.18-5.86l-1.004-21.98a5.593 5.593 0 0 0-5.167-5.323l-.056-.005a5.594 5.594 0 0 0-5.194 2.662l-5.22 8.543Zm-5.813-25.55a3.032 3.032 0 0 0-3.032-3.03H24.416a3.031 3.031 0 0 0-3.032 3.03v12.844a1.684 1.684 0 0 0 2.79 1.27l3.106-2.706c.184-.16.42-.249.664-.249h10.57a3.029 3.029 0 0 0 3.031-3.031V3.553Zm-18.14 12.104V3.553c0-.558.451-1.01 1.01-1.01h14.098a1.009 1.009 0 0 1 1.01 1.01v8.127a1.009 1.009 0 0 1-1.01 1.01h-10.57c-.732 0-1.44.265-1.992.746l-2.547 2.22Z" fill="#E53935"/><path fill-rule="evenodd" clip-rule="evenodd" d="M26.963 6.781h9.156a1.01 1.01 0 0 0 0-2.02h-9.156a1.01 1.01 0 0 0 0 2.02Zm0 3.685h4.502a1.011 1.011 0 0 0 0-2.02h-4.502a1.01 1.01 0 0 0 0 2.02ZM47.92 38.75l3.037-.43a4.816 4.816 0 0 0 3.435-2.257l3.247-5.316a1.011 1.011 0 0 0-1.725-1.053l-3.247 5.316a2.794 2.794 0 0 1-1.993 1.31l-3.037.428a1.012 1.012 0 0 0 .283 2.002Z" fill="#E53935"/></svg>