<svg width="62" height="64" fill="none" xmlns="http://www.w3.org/2000/svg"><path d="M52.563 17.406a2.812 2.812 0 1 0 0-5.625 2.812 2.812 0 0 0 0 5.625ZM9.438 17.406a2.812 2.812 0 1 0 0-5.625 2.812 2.812 0 0 0 0 5.625ZM19.75 47V26.375a3.75 3.75 0 0 1 3.75-3.75h15a3.75 3.75 0 0 1 3.75 3.75V47M1 47v-9.375a3.75 3.75 0 1 1 7.5 0v21.688a3.75 3.75 0 1 1-7.5 0V50.75M49.75 47v3.75a1.875 1.875 0 0 1-3.75 0V47m-30 0v3.75a1.875 1.875 0 0 1-3.75 0V47M61 50.75v8.563a3.75 3.75 0 1 1-7.5 0V37.624a3.75 3.75 0 1 1 7.5 0V47" stroke="#E53935" stroke-width="2" stroke-miterlimit="10" stroke-linecap="round" stroke-linejoin="round"/><path d="M34.75 30.125V43.25M31 30.125V43.25m-3.75-13.125V43.25M23.5 30.125h15V43.25h-15V30.125ZM14.125 43.25a5.625 5.625 0 1 0 0-11.25 5.625 5.625 0 0 0 0 11.25ZM47.875 43.25a5.625 5.625 0 1 0 0-11.25 5.625 5.625 0 0 0 0 11.25Z" stroke="#E53935" stroke-width="2" stroke-miterlimit="10" stroke-linecap="round" stroke-linejoin="round"/><path d="M47.875 39.5a1.875 1.875 0 1 0 0-3.75 1.875 1.875 0 0 0 0 3.75ZM14.125 39.5a1.875 1.875 0 1 0 0-3.75 1.875 1.875 0 0 0 0 3.75ZM49.75 50.75h3.75m-37.5 0h30m-37.5 0h3.75M8.5 47h45m-3.75-15V4.687A3.75 3.75 0 0 0 46 .938H16a3.75 3.75 0 0 0-3.75 3.75V32" stroke="#E53935" stroke-width="2" stroke-miterlimit="10" stroke-linecap="round" stroke-linejoin="round"/><path d="M49.75 6.563h-37.5m3.75 3.75h30v8.562H16v-8.563Z" stroke="#E53935" stroke-width="2" stroke-miterlimit="10" stroke-linecap="round" stroke-linejoin="round"/></svg>