<svg width="24" height="24" fill="none" xmlns="http://www.w3.org/2000/svg"><g clip-path="url(#a)" fill="#E53935"><path fill-rule="evenodd" clip-rule="evenodd" d="M2 3.036C2 1.359 3.343 0 5 0h14c1.657 0 3 1.36 3 3.036v12.892a3.04 3.04 0 0 1-1.658 2.716l-7 5.036a2.968 2.968 0 0 1-2.684 0l-7-5.036A3.04 3.04 0 0 1 2 15.928V3.036Zm3-1.012c-.552 0-1 .453-1 1.012v12.892c0 .384.214.734.553.905l7 5.036a.99.99 0 0 0 .894 0l7-5.036c.339-.171.553-.521.553-.905V3.036c0-.559-.448-1.012-1-1.012H5Z"/><path d="M12 4.797a1.21 1.21 0 0 0-1.2 1.265l.225 5.698c.02.53.451.948.975.948a.981.981 0 0 0 .975-.948l.225-5.698A1.21 1.21 0 0 0 12 4.797ZM10.563 15.714c0-.786.63-1.424 1.406-1.424.776 0 1.406.638 1.406 1.424 0 .787-.63 1.424-1.406 1.424a1.415 1.415 0 0 1-1.406-1.424Z"/></g><defs><clipPath id="a"><path fill="#fff" d="M0 0h24v24H0z"/></clipPath></defs></svg>