<svg width="54" height="64" fill="none" xmlns="http://www.w3.org/2000/svg"><path d="m31.573 7.417-.003 1.5M17.623 8.78a1.758 1.758 0 1 0-3.515-.008m17.295 14.436h8.225m-8.225 4.805h8.225m-8.225 4.804h8.225M27.1 11.024c-.001-2.314-1.677-2.53-3.745-2.53-2.068.002-3.744.22-3.742 2.534 0 2.313 1.678 4.188 3.745 4.187 2.068-.001 3.743-1.877 3.742-4.191ZM22.845 32.24H10.409a1.77 1.77 0 0 1-1.77-1.77v-2.16c0-.976.793-1.769 1.77-1.769h12.436c.977 0 1.77.792 1.77 1.77v2.16a1.77 1.77 0 0 1-1.77 1.769Zm23.883 17.978v4.532a3.508 3.508 0 0 0-3.508 3.508H24.197a3.508 3.508 0 0 0-3.508-3.508v-4.532a3.509 3.509 0 0 0 3.508-3.508H43.22a3.508 3.508 0 0 0 3.508 3.508Z" stroke="#E53935" stroke-width="2" stroke-miterlimit="10" stroke-linecap="round" stroke-linejoin="round"/><path d="M33.708 54.606c2.137 0 3.87-.95 3.87-2.122s-1.733-2.122-3.87-2.122-3.87.95-3.87 2.122 1.733 2.122 3.87 2.122Z" stroke="#E53935" stroke-width="2" stroke-miterlimit="10" stroke-linecap="round" stroke-linejoin="round"/><path d="M52.08 50.041v-5.51a2.625 2.625 0 0 0-2.624-2.626H17.96a2.625 2.625 0 0 0-2.625 2.625v15.907a2.625 2.625 0 0 0 2.625 2.626h31.496a2.625 2.625 0 0 0 2.625-2.626v-6.02M18.77 32.24v1.962a2.123 2.123 0 0 0 4.247 0V32.23m-12.784 0v1.97a2.123 2.123 0 0 0 4.247 0V32.24m8.363-5.699h3.32m-19.076 0h3.32m12.386 0-1.904-3.539a1.845 1.845 0 0 0-1.625-.97h-5.277a1.846 1.846 0 0 0-1.625.97l-1.904 3.54" stroke="#E53935" stroke-width="2" stroke-miterlimit="10" stroke-linecap="round" stroke-linejoin="round"/><path d="M44.798 41.905V5.937a5 5 0 0 0-5-5H6.918a5 5 0 0 0-5 5v3.184m0 4.375v39.82a5 5 0 0 0 5 5h8.418" stroke="#E53935" stroke-width="2" stroke-miterlimit="10" stroke-linecap="round" stroke-linejoin="round"/></svg>