<svg width="341" height="312" fill="none" xmlns="http://www.w3.org/2000/svg"><path d="M179.42 90.028v8.348c-1.554 2.656-1.594 5.688-3.131 8.422-3.966-.87-8.168-.444-12.476-1.421.056 1.752-.499 3.301-.578 4.862-.078 1.64-.925 3.116-.667 4.823.241 1.611-1.016 3.127-.472 4.727-.387.556-1.189.23-1.424.915-.27-.258-.528-.5-.848-.808-.117-1.348.281-2.864-.746-4.11-1.492-.286-2.485-1.336-3.472-2.38h-4.034c-.785-1.606-2.176-2.549-3.764-3.419-1.767-.966-3.321-2.319-4.465-3.139-2.283-1.224-.701-3.458-2.345-4.654h-2.743c-.657-.522-.937-.999-.915-1.751.068-2.145.023-4.295.023-6.395-1.633-2.358-4.275-3.526-6.115-5.57.679-1.386 2.446-1.504 3.254-2.935-1.425-1.01-2.149-2.718-3.422-3.986-1.156-1.151-2.671-1.993-3.31-3.695 1.862-.931 2.956-2.689 4.594-4.02-.51-1.28.696-2.295.544-3.626-.129-1.14-.308-2.38.528-3.413-.14-2.173.297-4.363-.533-6.518-.937-2.431-1.481-4.997-2.233-7.49-.875-2.902-2.39-4.99-5.245-6.26-1.829-.808-3.669-1.52-5.526-2.25-2.81-1.101-5.352-2.757-7.444-4.93-1.649-.387-3.013.253-4.348 1.18-5.06-3.33-10.68-5.508-15.864-8.506-1.173-.68-2.53-.837-3.748-1.056-2.603-.471-5.144-1.263-7.719-1.656-1.84-.28-3.697-.994-5.638-.702-.808.118-1.548-.106-2.311-.51-.679-.366-1.52.055-2.379-.36-1.065-.51-2.412-.674-3.59-.735-4.645-.253-8.993-1.746-13.385-2.976-1.722-.483-3.383-.915-5.178-1.055-3.848-.303-7.68-.786-11.78-.433-.197.253-.545.69-.808 1.028h-6.34c-2.12 1.864-2.086 1.88-3.668 5.176-.337.707-.898 1.566-1.773 1.505-.757-.05-1.167.471-1.705.69-.606.247-1.414.36-1.784 1.044h-4.068c-.493-1.195.062-2.52-.308-3.845H6.434c-.948-1.05-2.075-1.381-3.27-1.174-1.173.202-1.97-.892-3.164-.6v-1.471c1.947-1.948 3.916-3.947 5.918-5.912 3.03-2.981 6.519-5.474 9.251-8.837h3.04c2.216-.78 2.878-2.958 4.107-4.541.684-.882 1.498-1.522 1.997-2.23.87-.055.948.596 1.391.72v5.53c.528 1.19 1.476 1.094 2.272 1.027.976-.977 1.89-1.898 2.727-2.734h2.075c1.24 1.353 2.75 2.65 5.038 2.122.505 1.01 1.604 1.14 2.367 1.746.735.196.83-1.146 1.745-.404V7.893c.656-1.358 1.862-1.762 2.665-2.15 1.138-.466 1.52.753 2.333.427 1.476-.19 2.261-1.387 3.226-2.251.942.056 1.874-.13 2.94.286 1.122-.696 2.546-1.521 3.163-3.178 1.941.399 3.59 1.454 5.335 1.662 1.784.214 3.507 1.14 5.476.573l.74-.764 4.079 4.082c1.896.252 3.147.286 4.358-.96.202-1.718-1.823-2.785-2.266-4.565.045-.51.572-.668.825-1.055h1.122c.465.404.364 1.196 1.178 1.622h6.182c.118 1.477 1.873 1.814 1.986 3.29.87.298 1.75.668 2.67.893 1.902.472 3.332 1.583 4.673 2.97 2.087 2.161 3.899 4.536 5.812 6.827 1.363 1.628 3.5 2.711 5.755 2.863 1.807.123 3.282.83 4.494 2.004.611.595 1.47.702 2.048 1.432 1.351-.214 2.76.224 4.207-.506.746-.376 2.047-.449 2.726.708.094 2.897 1.335 5.067 3.725 6.512.629 0 1.285.062 1.93-.011 2.687-.314 5.049.517 7.467 1.634 2.266 1.044 4.454 2.285 6.9 2.992 1.374.399 2.569 1.443 3.944 2.263.258.668.936 1.347.779 2.352 1.178 1.207 2.306 2.28 4.191 2.672 1.531.32 2.838 1.65 4.291 2.454.758.415 1.47.926 2.474.836 1.184-.107 1.498 1.55 2.704 1.65.55 0 1.105.057 1.644-.01 3.68-.439 7.04.769 10.44 1.886 2.221.73 4.477 1.47 6.614 2.33 2.816 1.128 5.767 1.92 8.499 3.172 2.059.943 4.213 1.577 6.288 2.43 2.671 1.095 4.763 2.87 6.614 5.053-.948 1.286-1.924 2.622-3.085 4.205-1.268.37-2.726-.353-4.045-.853-2.288-.859-4.544-1.527-7.152-1.348-.331.41-.741.921-1.296 1.606v2.442c-.971 1.196-2.278.972-3.517.977-2.059.006-4.112 0-6.278 0-.611.651-1.144 1.297-1.565 2.302-.858 2.066-1.649 4.255-3.377 6.052 1.139 1.696 2.205 3.38 3.865 4.795 1.722 1.465 3.478 2.975 4.729 5.002a9.44 9.44 0 0 0 3.355 3.205c.622.348 1.127.904 1.615 1.308l.012.017ZM292.985 272.336l-1.071 1.072h-8.611v6.058l-9.352 2.291c-1.088-.399-1.184-1.701-.724-2.42.646-1.016.303-1.937.455-2.807-.23-.382-.628-.191-.774-.331-.741-.708-1.42-1.477-2.126-2.235h-3.159c.118-1.19-1.01-1.982-.617-3.088-2.328-1.173-4.723-.769-7.203-.847v8.617c-2.283 1.909-3.781 4.604-6.833 5.609v4.924c-1.778-.242-3.45.303-5.127-.573-.713-.371-1.593.056-2.261.533-1.088.769-2.092.741-3.197.006-.713-.472-1.549-.769-2.446-1.196-2.216 1.667-3.737 4.227-6.469 5.693h-4.6v3.638c-1.464.398-2.732 1.263-4.257.679-.702 1.061-1.319 2.032-1.981 2.97a13.345 13.345 0 0 1-3.472 3.397c-1.784 1.212-3.708 2.307-4.976 4.176-.281.416-.634.955-1.346.831-.578-.679-.36-1.229.162-1.903.752-.966 1.279-2.105 2.031-3.071.415-.533.286-1.01.264-1.65h-2.912c-2.266-1.977-2.081-4.699-2.749-7.024l1.178-1.179v-2.492h-4.628l-1.543-1.544c.107-2.914 1.072-5.502 3.221-7.613a374.236 374.236 0 0 0 5.149-5.165c.511-.522 1.027-1.005 1.767-1.173v-4.486c1.28-.438 2.037-1.51 2.918-2.408.824-.837 2.165-1.017 2.692-2.252-.202-1.055.937-1.903.589-3.082-.325-1.1.23-2.128.567-3.121.611-1.797 1.391-3.537 2.059-5.317.151-.41.157-.876.269-1.538 1.397.331 2.687-.433 4.078-.607 2.491-1.718 2.873-4.541 3.658-7.152.55-1.825.746-3.756 1.582-5.401-.64-1.358-.69-3.026-2.115-3.879v-12.991c.219-.55.948-.197 1.324-.741 1.217-1.763 3.198-2.701 4.735-4.149 1.486-1.404 3.579-1.825 5.548-2.1 2.923-.404 5.778-1.381 8.785-1.173.252.017.572-.017.768-.152 1.605-1.128 3.467-1.572 5.56-1.954 1.503.871 1.935 2.847 2.928 4.374.774 1.19 1.61 2.436 1.829 4.02.14 1.021.768 2.195 2.143 2.408 1.902 1.948 4.23 3.397 6.345 5.07 2.558 2.026 5.138 4.092 7.915 5.85.309.196.533.522.814.797-1.016 1.97-2.306 3.784-3.035 5.951-.887 2.627-.971 2.526.095 5.182.909 2.251 2.435 4.064 3.708 5.956 1.464 0 2.889.23 4.196-.067 1.268-.286 2.424-1.061 4.006-.921v5.014c2.485 1.004 4.6 2.436 6.793 4.165.247 1.482-.37 2.976-.976 4.396-.774 1.83-.763 3.79-1.571 6.114v.011Z" fill="#F1F1F1"/><path d="M236.062 129.445c.41 1.769 1.706 2.689 2.755 3.812-.612 1.415-2.413 1.488-3.198 2.976-.022.578-.039 1.268.314 2.105.539 1.274.909 2.689.763 4.188-.151 1.578-.033 3.178-.033 4.845-.87.202-1.515 1.201-2.615.752-.437-1.167-.101-2.38-.179-3.57-.079-1.252-.039-2.459-.494-3.722-.387-1.073-.078-2.392-.078-3.605l-2.783-2.784 2.166-2.167c.387-1.494-.124-2.97-.775-4.115-.729-1.281-.847-2.51-.852-3.706a7.156 7.156 0 0 1-1.173-2.493c-.69-2.694-1.402-5.4-2.249-8.045a78.138 78.138 0 0 1-2.295-8.887c-.241-1.246 0-2.695-.572-3.649-.729-1.213-.123-2.358-.561-3.424-1.604-3.566-4.578-6.243-6.322-9.77-1.049-.325-1.84.394-2.614.91-3.019 1.999-5.952 4.121-8.982 6.097-.69.45-1.436 1.174-2.513.696-.471-.842-1.038-1.768-.712-2.964-2.749-.965-5.481-1.6-8.398-1.46a6.384 6.384 0 0 0-2.547.646c-2.323 1.168-4.544 2.515-6.945 3.554-1.509.651-2.856 1.678-4.454 2.65-.331-2.729-.034-5.384-.169-8.073-.701-1.404-1.514-2.757-3.169-3.369-.399-.146-.741-.59-.993-.971-1.728-2.616-3.927-4.744-6.508-6.524-1.307-.898-1.554-2.51-2.373-3.834 1.19-2.105 2.25-4.188 3.147-6.434 3.063-1.297 6.334-.241 9.762-.73l.892-1.443.37.27v-2.93c1.212-1.343 2.592-1 3.887-.579 1.807.584 3.658 1.15 5.302 2.06.824.455 1.537.421 2.384.494.544-.903 1.632-1.33 1.98-2.537.292-1.005 1.01-1.903 1.924-2.498h1.683c1.083 1.117 2.093 2.296 3.63 2.784 1.498-.51 2.519-1.909 4.118-2.246 2.277-2.172 5.065-2.453 7.982-2.189l1.279 1.28v7.394c2.856 3.436 5.79 6.967 8.808 10.594 1.049-.674 1.761-1.51 3.338-1.948.69-.05 1.98-.068 2.995.83.606.54 1.235.292 1.84.304 2.889.033 5.778.017 8.909.017.998 2.773 1.52 5.703 2.216 8.578.684 2.824 1.913 5.547 1.683 8.69h2.939c1.459 1.83 4.011 1.803 5.431 3.807v2.218c.252.129.403.275.56.275 1.027.022 2.065.078 3.08-.012.707-.061.965.433 1.414.809v2.313c-.454.584-.898 1.252-1.195 2.167-.477 1.482-.527 2.616.034 4.093.488 1.285 1.01 2.734.639 4.227 1.061 3.049.281 6.215.595 9.303.174 1.746-.505 3.211-1.38 4.48-1.206 1.74-2.025 3.671-3.13 5.451-.926 1.488-1.807 2.998-2.811 4.677-.056 1.92.314 4.149-1.071 6.024-1.044.488-1.863.14-2.833-.219-.904-.332-2.031-.073-3.103-.073l-2.631 2.739h-4.381c0-1.914-.112-3.772.034-5.614.146-1.869-1.021-3.379-1.195-5.238 1.515-.544 2.334-1.892 3.394-2.801.162-1.96-1.212-2.869-2.356-4.115 1.352-1.645 2.429-3.526 4.089-4.907-.336-1.471.864-2.65.533-4.053-.853-3.627-.51-7.321-.561-10.993 0-.37-.129-.662-.297-1.005-.696-1.409-.393-2.919.336-4.115 1.453-2.386 2.873-4.772 3.922-7.366.089-.219.325-.382.493-.572-.409-.472-.914-.14-1.447-.281-1.234 3.06-2.979 5.867-4.471 8.444-.802 2.301.438 4.176.353 6.186-.084 1.96.073 3.936-.061 5.89-.051.763.65.988.656 1.734.039 3.268-.937 6.114-3.068 8.567-.612.702-1.313 1.331-2.071 2.089l-.011.011ZM194.735 186.35c-.719-2.285-3.316-3.133-4.242-5.457h5.263c2.703-2.145 4.179-5.148 6.67-7.074.061-1.527-.679-2.509-1.666-3.408.1-1.033-.472-2.234.802-3.065h12.061c.179.955-.713 1.617-.6 2.56.084.691-.399 1.488-.971 2.094-.606.646-1.677 1.084-1.094 2.336 1.016.258 1.61 1.235 2.379 1.892 2.575-1.634 5.29-2.622 8.482-2.106.998.876.667 2.196.836 3.419.258 1.887.572 3.745.583 5.665.011 1.319-.286 2.628-.875 3.571-.853 1.375-.853 2.717-.858 4.149-.012 2.06 0 4.115 0 6.175 0 1.595-.814 3.997-1.571 5.805-.309.736-.757 1.218-1.251 1.724-1.902 1.937-3.826 3.845-5.834 5.855-.999-.123-2.003.225-2.94.713-2.025 1.056-3.91 2.521-6.412 2.134-2.367 1.106-4.808.381-7.697.51 2.895-4.322 5.537-8.269 8.252-12.328-.016-1.69 2.357-2.324 2.323-4.194 1.167-1.112 2.031-2.38 2.345-4.132h-4.572c-1.038-.567-1.857-1.331-3.024-1.19-1.778-1.426-3.085-3.385-5.037-4.671-.202.337-.292.488-.528.876 1.509 1.51 2.878 3.374 4.701 4.536 1.296.831 2.979 1.448 4.684 1.51.629.023 1.291-.191 2.121.303-2.266 3.346-4.566 6.647-6.715 10.038-2.137 3.369-4.729 6.479-6.552 10.426h8.656c1.335-1.168 3.096-.264 4.633-1.028 1.285-.64 2.559-1.482 4.011-1.802.629.545-.347.646-.246 1.056.145.595-.758.803-.561 1.454.162.533-.511.87-.5 1.168.04 1.094-1.251.931-1.514 1.886-.208.752-.337 1.853-1.363 2.347-.713.342-1.218 1.044-1.812 1.577-1.403 1.263-3.002 2.504-2.603 4.957-2.648 1.932-5.498 3.644-8.393 5.255-.589-.275-1.211-.438-1.666-.814-.791-.651-1.47-1.437-2.249-2.212-.343-.735.347-1.869-.977-2.52h-4.471c-1.374 2.616-3.147 5.114-4.297 8.179 1.756.225 3.361-.971 5.01-.247.191 2.583.011 3.088-1.481 3.975v1.729c.673.607 1.43 1.286 2.249 2.027-1.009 1.622-1.722 3.211-3.208 4.48h-5.571l-.752.752v5.003c.371.701.774 1.465 1.122 2.127-.755 1.991-2.081 3.936-3.977 5.833-.309 1.539 1.391 2.487 1.172 3.998.797.522.472 1.336.494 2.038.073 2.543.864 5.209 2.513 7.09 1.386 1.578 2.373 3.509 4.174 4.677v2.594c-1.004-.079-1.33.864-2.205 1.324-1.318-1.1-2.563-2.419-4.533-3.463h-1.267c-2.132-3.223-4.168-6.3-6.3-9.516-.971-.511-1.487.426-2.166 1.061h-2.255c-.948-.719-1.542-2.005-2.838-1.977-.348-1.701-1.15-2.992-.763-4.525.909-.842 1.643-1.813 1.627-3.205-.017-1.061.6-1.83 1.312-2.538 1.453-1.443 2.895-2.897 4.37-4.373-1.542-3.251-3.147-6.367-6.277-8.573-.062-.713.718-1.168 1.262-1.499 2.457-1.499 4.505-3.52 6.816-5.204.073-.056.124-.157.202-.191 2.311-.971 3.029-2.863 2.956-5.182-.022-.786.427-1.465.831-1.875.6-.612.684-1.488 1.43-2.083v-3.026h3.063c.275-.73 1.038-.46 1.526-1.061-1.234-1.639-2.508-3.324-3.859-5.12-2.66-.64-5.493-1.516-8.539-1.14v-8.937h4.354v-9.387c1.065-.5 2.042-.708 2.709-1.488.03-.865-.267-1.654-.892-2.369v-1.915h2.463c.903.466 1.834.949 3.024 1.567 1.2.258 2.535-.062 3.865-1.185 3.04.91 4.712-1.364 6.541-3.267 1.397-.174 2.58 1.033 4.056.426.185-.275.707-.438.78-1.212-1.021-1.146-2.11-2.426-3.882-2.706v-2.403c.6-1.089 1.497-.837 2.322-.854.999.36 1.24 1.949 2.738 1.662-.124.292 0 .461.258.517.045.011.174-.124.162-.163-.056-.258-.23-.382-.347-.376v.011Z" fill="#F1F1F1"/><path d="M194.196 129.114c-.135.696-.365 1.162-1.055 1.679-.712-.247-1.711.499-2.608-.377a.671.671 0 0 0-.488-.157c-2.772.399-5.419-.825-8.179-.578-2.469.219-4.831-.769-7.338-.646-1.173.056-2.367-.954-3.59-1.381-2.211-.763-4.219-1.993-6.485-2.638-.393-.113-.775-.36-1.24-.388-4.034-.241-8.039-.971-11.439-.499l-13.2-5.446a1.963 1.963 0 0 0-1.217-1.449c0-1.072.017-2.088 0-3.099-.062-2.925-.914-5.793-.567-8.746.051-.45.006-.904.006-1.196.909-1.342 2.093-.786 3.091-.876 1.094.814.954 2.105 1.352 3.149.174.455.337.871.696 1.106 2.49 1.634 5.004 3.234 7.623 4.918.393.792.651 1.853 1.655 2.684 1.089-.949 2.48-.578 3.866-.657.841 1.342 2.502 1.763 3.579 3.11v3.374c1.587 1.668 3.035.618 4.555.062-.455-2.644.477-5.125.651-7.669.145-2.139.959-4.3 1.049-6.602 4.213.365 8.409.736 12.639 1.1.493-2.459 1.396-4.62 2.126-6.843.549-1.673 2.008-2.128 3.304-2.79a224.73 224.73 0 0 0 7.349-3.908c2.569-1.431 5.284-2.206 8.56-1.55.685.388 1.644 1.006 2.929 1.09-.202 1.1.813 1.914.673 3.132h3.568c3.545-2.52 7.068-5.17 11.163-7.331 1.055 1.51 2.143 2.986 3.114 4.541.179.287.275.674.561.876 1.341.955 1.649 2.515 2.115 3.896.477 1.409.667 2.976.679 4.475.011 1.291.269 2.492.622 3.694.976 3.34 1.767 6.754 2.895 10.027.909 2.638 1.576 5.333 2.322 7.994.494 1.757 1.667 3.329 1.526 5.278-.022.325.601.432.572.645-.858.82-1.581 1.51-2.614 2.504h-1.071c-.78-.859-1.829-.921-2.889-1.168-4.112-.971-8.269-.308-12.392-.499-.696-.034-1.358.168-2.065.387-2.092.651-4.314.881-6.485 1.28-.348.062-.763-.191-1.038.197-.409.578-1.296.533-1.464.291-.617-.87-1.75-.207-2.412-1.117-.931-1.269-2.244-2.245-3.299-3.424-.471-.528-.981-.405-1.711-.449l.006-.006ZM314.594 265.627c-2.081-1.375-2.889-3.593-4.757-5.131-2.159 0-4.493.163-6.793-.045-2.239-.202-4.292.932-6.558.561-1.975-1.684-4.112-3.267-6.519-4.822v-4.441c-1.935-.864-3.775-.022-5.329.517-1.599.555-2.726.224-4.039-.287-.685-1.757-1.773-3.25-2.985-4.755v-3.896c.892-2.773 2.744-4.548 3.434-6.866-.718-1.488-2.16-2.01-3.187-2.981-1.06-1.005-2.457-1.555-3.371-2.746-.831-1.072-2.3-1.246-3.192-2.481-.752-1.033-2.39-1.443-3.389-2.465-1.015-1.038-2.255-1.701-3.612-2.582-.41-1.174-1.582-2.336-1.285-3.986-.937-.758-1.133-2.033-1.84-2.858-.959-1.117-1.335-2.47-2.238-3.817 1.565-.702 2.877-1.803 4.701-1.449.611.118.993-.275 1.464-.533.359-.197.914.135 1.279-.281.011-.365-.079-.775.623-.898 1.054.208 1.391 1.488 2.193 2.178.813.702 1.56 1.724 2.238 2.667.685.954 1.638 1.78 2.126 2.762.567 1.151 1.801 1.673 2.205 2.723.471 1.224 1.52 1.751 2.289 2.863 2.076-1.847 4.061-3.498 4.19-6.462 1.784 1.376 3.467 2.678 5.021 3.874 2.839-.752 3.035-3.554 4.404-5.446 1.402.388 2.407 1.6 3.798 1.561.987-.028.589.881 1.116 1.241 1.167.808 2.586 1.05 3.686 2.032 1.784 1.6 2.928 3.672 4.179 5.609.617.954 1.936 1.47 1.902 2.773 2.289 1.156 4.718 1.897 6.794 3.391.381.275 1.06.146 1.868.23.964 1.134 2.283 2.229 4.14 3.234h3.91c1.885 1.123 3.736 1.864 5.862 1.757 1.492-.073 2.99-.017 4.583-.017.926 2.162-.886 4.211-.224 6.569 1.357.718 1.857 2.492 3.226 3.582 1.346 1.072 3.214 1.033 4.493 2.487-.471.471-.892 1.083-1.47 1.42-.69.404-.538 1.476-1.228 1.611-.814.163-1.038 1.016-1.554 1.218-3.052-.668-5.891-1.291-8.797-1.925-2.479 2.857-4.386 5.968-6.569 8.887v3.498c-2.064 1.504-4.65 1.291-6.782 1.925h-.006ZM243.922 215.297c-.915 1.347-2.553 1.1-3.838 1.313-1.531.253-2.659.809-3.769 1.814-2.009 1.813-4.124 3.503-6.261 5.299-.039 2.1.236 4.396-.219 6.535-.443 2.1-.376 4.155-.493 6.204.381.629.639 1.342 1.127 1.802 1.296 1.229 1.414 2.829 1.083 4.295-.595 2.61-1.475 5.17-2.367 7.702-.64 1.814-1.369 2.207-4.421 2.959-3.573-2.667-6.979-5.676-11.029-7.877.724-1.139.505-2.38.987-3.503.382-.892.64-1.791 1.302-2.554.505-.584.965-1.275.987-2.1.011-.404.107-.69.41-.96 1.823-1.656 2.373-4.059 3.523-6.114.078-.14.011-.37.011-.881-.443-.247-1.094-.618-1.75-.983.106-.101.207-.207.314-.308h-2.233c-.696.875-1.655 1.33-2.676 1.673-3.613-.742-7.046-2.313-10.838-2.302-.555-1.168-.135-1.999.718-2.903.942-.999 1.61-2.195 2.906-2.93.898-.511 1.52-1.471 2.053-2.471.819-1.532 1.835-2.958 2.334-4.648.718-2.42 2.642-3.919 4.415-5.423 1.066-.904 2.216-1.83 2.984-2.892.892-1.229 2.485-1.925 2.687-3.632a56.79 56.79 0 0 0 .73-12.576c-.051-.965 1.004-1.583.594-2.571 2.02-2.902 1.061-6.018.651-9.308 2.188.269 4.179-.331 5.986-1.808v-5.075c.589-.724 1.127-1.213 2.014-.954 1.133.684 1.105 2.155 2.025 3.132-.37 2.572.869 4.952 1.369 7.461.527 2.65 1.279 5.255 1.985 7.866.528 1.937 1.229 3.896 1.437 5.822.325 3.026 1.492 5.799 2.053 8.747.55 2.88 1.111 5.816 2.036 8.657.354 1.077 1.307 1.925 1.167 3.48l.006.012ZM104.792 181.112c.213-2.644 1.913-4.272 3.674-5.917h5.947c2.535 1.841 4.993 3.626 7.601 5.524h4.185c.191.27.471.915.954 1.303.751.595 1.576 1.066 2.659 1.027 2.238-.079 4.482-.023 6.799-.023 2.008 2.639 4.852 4.447 7.293 6.687 1.397 1.286 2.878 2.521 4.375 3.935h3.866c1.464.983.549 2.723 2.002 3.925 2.519-.219 5.369-1.112 8.28-1.544 2.985-.449 5.812-1.561 9.189-1.555.41.252-.381 1.016-.101 1.313.236.977 1.296 1.14 1.201 2.139-.662.304-1.358.629-2.166 1v9.285h-5.076v9.281l-.898.898h-2.811c-1.138-1.28-2.81-1.847-4.145-2.976v-4.457c.561-1.106 1.15-2.263 1.902-3.739-1.801-.096-3.35-.028-5.021-.056-.477.572-1.01 1.212-1.622 1.937-1.767-1.219-3.556-1.685-5.744-1.252l-1.245 1.555c-1.605-.028-2.805.067-4.073-.461-.881-.37-1.975.461-2.917.91-1.717.814-3.428 1.645-5.223 2.504-.539-3.172-1.066-6.215-.729-9.494-2.07-.376-3.798-1.527-5.885-2.01-1.851-.426-3.658-1.487-5.47-2.2-1.368 1.555-2.008 3.323-2.378 5.215-1.089-.129-1.425-.999-2.059-1.499v-5.737h-3.708c-2.328-1.258-3.68-3.172-5.778-4.06-2.283 1.129-4.718.27-7.024.624-.46-.854-1.7-.489-1.907-1.662.522-1.988 1.094-4.183 1.745-6.664.583-.455 1.093-1.42 2.103-1.836.982-.41 1.464-1.364 2.211-1.914l-.006-.006Z" fill="#F1F1F1"/><path d="M241.033 169.176c3.73-.365 5.665-2.79 8.313-4.036.623.668 1.319 1.403 2.025 2.156 2.587.078 4.803-.573 6.564-2.476.129-.135.331-.242.387-.399.763-2.15 2.373-3.851 3.203-5.973 7.607-.449 12.185-.281 14.406.606 0 2.139.382 4.441-.084 6.557-.808 3.683-.185 7.349-.493 10.998-.404 4.761.97 9.174 2.429 13.581.078.236.415.326.404.679-.028 1.028-.012 2.055-.012 3.133-1.542 1.308-3.579 2.038-4.959 3.896v5.177c3.703 1.195 6.928 3.317 9.559 6.169 2.62.742 5.077-.465 7.422-.404 1.521 1.219.443 2.375.41 3.543-.034 1.212-.685 2.234-.662 2.953l-2.94 2.942c-1.284-1.797-3.859-2.358-5.099-4.357-.808-.135-1.044.483-1.47.808v3.313c-.886.853-1.745 1.69-2.715 2.627-1.604-3.306-4.791-5.485-6.384-8.848-1.599-.073-.931-2.408-2.508-2.509-.566-1.207-1.419-2.229-2.126-3.335-.695-1.089-1.61-2.06-2.008-3.363-.314-1.033-1.661-1.415-1.806-2.61-2.014-1.612-2.985-4.02-4.225-6.12-1.099-1.869-2.563-3.396-3.775-5.12-1.683-2.38-2.805-5.114-4.757-7.298-1.61-1.802-2.536-4.099-4.275-5.805-.264-.259-.634-.489-.752-.809-.763-2.015-1.98-3.728-4.061-5.664l-.011-.012Z" fill="#F1F1F1"/><path d="M260.387 103.884h4.061c.286.286.55.55.819.814v6.703c.387.854 1.425.769 1.952 1.426h2.205c.611.393.881 1.258 1.778 1.179.673 1.505.96 3.071.774 4.699.999.68 2.076 1 3.243.899.544 2.576-.157 4.974-.533 7.236 1.285 1.662 2.205 3.369 3.989 4.581 2.098-.084 3.366-2.184 5.525-2.947.303 1.415.056 2.79.174 4.278 1.408 1.903 4.14 2.38 5.464 4.525-.824.466-1.688 1.123-2.939.752-.875-.668-1.751-1.622-3.119-1.605-1.829.022-3.411.729-4.819 1.689-1.599 6.232-2.401 12.492-3.136 18.903.05-.056 0 .023-.073.073a.435.435 0 0 1-.236.101h-14.602c-1.212 1.971-2.255 4.003-3.417 5.951-.6 1.005-1.178 1.746-2.232 2.089-.988.32-1.863 1.016-3.147.932-1.56-1.32-2.704-3.122-3.86-4.93-.561-.881-.538-1.594.006-2.504.729-1.218 1.346-2.498 2.429-3.503 0-2.032.078-4.092-.028-6.142-.062-1.145.303-2.099.802-3.048.875-1.656 1.683-3.34 1.458-5.277-.168-1.466.629-2.706 1.38-3.61 1.661-2.004 2.385-4.508 3.995-6.541.74-.932.785-2.492 1.929-3.441 0-3.217.18-6.496-.072-9.741-.141-1.807-.371-3.66-.965-5.457-.343-1.033-.258-2.262-.606-3.396-.309-1.011.303-2.004 1.021-2.605.712-.595.499-1.319.791-2.089l-.011.006ZM102.021 183.021h-1.403c-.46.46-.92.926-1.391 1.403.342 2.201-1.806 3.947-1.229 5.558-.443 3.217-3.18 2.403-4.297 3.773-1.049-1.05-1.958-1.965-2.805-2.818H79.88a12.308 12.308 0 0 0-3.619-2.998v-6.979c.5-.404 1.15-.931 1.638-1.33v-4.239c-1.498-1.061-2.311-2.762-3.427-4.059-.315-.045-.494-.106-.668-.09-3.04.292-5.772-.516-8.392-2.066-1.56-.926-3.299-1.544-4.892-2.599v-4.705c-.825-.263-1.773-.061-2.205-1.027 1.117-1.359 2.732-2.105 4.197-3.043l2.21 2.212c.432 0 .897-.005 1.357 0 1.897.039 3.765.096 5.666.466 1.818.354 3.624.595 5.425 1.117 1.05.303 2.362.775 3.36.562 1.992-.421 4.118.022 5.902-.601 1.705-.595 3.225-.022 4.763-.533.448 2.212 1.296 4.076 1.363 6.091.925.415 1.88.657 2.558 1.409.123.14.27.388.393.382 2.625-.135 4.173 2.1 6.372 2.891.803.287 1.526.786 2.373.663.034.421.045.6.068.943.897.286 2.288-.365 2.765 1.106 0 .741-.729.977-1.116 1.465-.342.432-.971.747-1.105 1.224a14.027 14.027 0 0 1-2.828 5.283c-.089.107-.011.365-.011.55l-.005-.011ZM260.802 279.281v-8.079c1.615-.006 3.22-.359 5.032.825.622.607.185 2.162 1.363 3.021h2.766c.572.702 1.161 1.415 1.991 2.431v3.829c.252.746 1.077.909 1.184 1.802-1.083 1.021-1.582 2.532-2.345 3.907.578.522 1.408.556 1.756 1.291v5.581c.589.662 1.425.039 2.272.511-.472 1.723.594 3.368.549 5.182-.044 1.863-.011 3.727-.011 5.776-.925-.106-1.666.422-2.614.753-.23 2.015-2.3 3.301-2.552 5.889-3.226-5.333-6.255-10.251-9.442-14.95h-4.37c-1.47 2.795-3.787 5.204-3.461 8.803h-3.72c-1.026-1.011-2.468-1.73-3.938-2.69h-3.461c-2.861 0-5.352-1.515-6.676-4.064-.157-.303-.235-.646-.353-.988-1.537 0-3.029 0-4.516-.006-.073 0-.14-.101-.275-.202v-3.161h4.701c.068-.062.135-.129.202-.191l5.352-5.356c1.481 1.157 2.799 1.993 5.021 1.32 2.081-.635 4.504-.713 6.726.196.785.32 1.419.079 2.008-.73v-3.885l6.811-6.815ZM266.995 207.706c-1.06.601-1.717.966-2.895 1.634-1.643-.14-3.758.954-5.772 2.262-1.184.77-2.441 1.28-3.753 1.791-1.599.623-3.405.887-4.735 2.179h-4.522c-.768-2.448-1.705-4.885-2.271-7.405-.444-1.971-.814-3.958-1.336-5.912-.678-2.521-1.071-5.12-2.058-7.568a11.017 11.017 0 0 1-.73-3.06c-.269-2.913-1.352-5.642-1.958-8.477-.235-1.1.113-2.313-.387-3.178-.549-.96-.88-1.998-.976-2.953a19.327 19.327 0 0 0-1.442-5.597c-.387-.909.315-2.145-.875-2.7.393-.848 1.436-.758 1.936-1.393 1.038.826 2.535.938 3.287 2.173.656.034 1.285.062 1.907.09 2.216 3.06 4.056 6.293 6.295 9.263 1.324 1.763 2.563 3.604 3.798 5.435 1.234 1.835 2.361 3.722 3.741 5.473 1.739 2.207 3.08 4.722 4.774 6.996 1.795 2.408 3.248 5.069 5.195 7.377.92 1.089.909 2.722 2.766 3.565l.011.005ZM227.855 150.93c-1.93.584-3.613-.482-5.43-.589-1.145-.067-2.267-1.23-3.305-2.027a33.357 33.357 0 0 1-2.053-1.746c-1.632-1.476-3.792-2.071-5.817-2.784-.847-.298-1.644-.573-2.412-1.162h-2.598c-1.537-1.123-3.096-2.089-4.302-3.689v-3.469c1.716-.59 3.422-1.483 5.301-1.236 1.021.135 1.604-.741 2.575-.656.757.067 1.683.432 2.328-.41 3.798-.012 7.596-.028 11.393-.04 1.47.96 3.383.859 4.763 1.988.449.365.903.011 1.543.393.774.786 1.756 1.779 2.822 2.857v9.685a27.213 27.213 0 0 1-4.808 2.885Z" fill="#F1F1F1"/><path d="M226.806 152.171h2.16c.118-.073.207-.106.258-.174 1.071-1.252 2.737-1.594 3.994-2.599.505-.399 1.548-.444 2.255-.522 2.306-.264 4.662-.101 7.001-.101.903-.938 1.807-1.881 2.48-2.583 1.986-.64 3.484.146 5.06.449-.028.539-.527.82-.488 1.432.112 1.768.039 3.554.039 5.328 0 1.167-.23 2.01-1.391 2.807-1.066.735-1.386 2.346-2.025 3.772.74 1.14 1.071 2.662 2.361 3.734-2.821 2.178-5.306 4.929-9.261 4.721-.455-.41-.808-.904-1.285-1.123-3.641-1.661-6.334-4.407-8.549-7.618-.803-1.162-1.448-2.414-2.401-3.492-1.347-1.516-1.347-2.504-.208-4.042v.011ZM201.904 158.066c-.028-2.044-.858-3.795-1.504-5.597-.375-2.083-.398-4.149 1.47-5.682-.28-.73.657-.971.629-1.735-.034-.836.471-1.678 1.329-2.419 1.161 1.302 2.777 1.095 4.342 1.083 1.442.607 2.597 1.92 4.353 1.685.466-.062.578.393.887.567 1.851 1.044 3.775 1.942 5.262 3.57 1.082 1.185 2.502 1.988 4.185 2.021.774.017 1.239.64 1.958.775v2.437c-.909.179-1.56 1.016-2.559.752-.684-.18-1.256.426-1.643.707-1.829 1.353-3.467 3.088-4.056 5.272-.342 1.274-1.251 2.296-1.302 3.711-.028.853-1.026 1.173-1.946.904-2.772-4.042-7.074-5.89-11.411-8.051h.006ZM71.755 123.78c-.38 1.814 1.644 3.74-.387 5.699-.403.084-.925.864-2.412.696-.213-.034-.488-.848-1.116-1.269v-1.808c.864-.381 1.33-1.403 1.56-2.24.33-1.218.084-2.588.084-3.873-1.078-.96-1.184-2.375-1.627-3.565-1.319-3.515-3.983-5.687-7.091-7.293-1.414-.73-2.962-1.578-4.73-1.173v-1.443c.702-.595 1.577-.04 2.47-.405.543 1.101 1.772 1.056 2.613 1.64 1.021.707 2.418.331 3.204 1.022.953.836 2.114.842 3.096 1.398.993.555 2.081.842 3.17 1.162 1.245.37 2.31 1.218 3.73 1.212.297 0 .595.876.774 1.168 2.407-.836 4.342-1.538 6.654-1.235.028.915.078 1.914.073 2.908 0 1.432.488 2.392 1.79 3.262 3.18 2.122 6.103 4.637 9.295 6.742 1.739 1.146 2.99 2.431 3.455 4.565-.37.746-.712 1.678-1.632 2.363v4.615c-.892.191-.527-.533-.668-.797-.965-1.819-2.109-3.341-3.91-4.553-2.126-1.437-4.247-2.92-6.423-4.593h-3.529v-2.341c-.981-1.308-1.413-2.722-2.535-3.755H74.2c-.415.92-1.7.965-2.445 1.903v-.012Z" fill="#F1F1F1"/><path d="M228.803 170.473v4.935c-1.414 1.173-3.091.837-4.746.882-.763-1.219-.409-2.976-1.924-4.065-.701.864-1.722.685-2.71.696-1.234.017-3.371.691-4.717 1.471-1.061.612-1.683.067-2.312-.983 1.61-1.381 2.143-3.211 1.756-5.215.511-.427.774-1.016 1.577-.87 1.447-3.846 2.322-8.068 6.271-10.678 1.167.443 2.351-.68 3.714-.573 2.266 3.896 4.813 7.573 8.342 10.532-1.582 1.774-3.972 2.01-5.257 3.868h.006ZM194.583 186.389c.269-.05.438.073.499.332.012.044-.123.174-.162.162-.258-.056-.382-.23-.331-.499l-.006.005Z" fill="#F1F1F1"/></svg>