<svg width="600" height="549" fill="none" xmlns="http://www.w3.org/2000/svg"><path d="M315.694 158.415v14.69c-2.734 4.672-2.803 10.007-5.507 14.818-6.979-1.531-14.372-.78-21.953-2.499.099 3.082-.878 5.808-1.017 8.555-.138 2.884-1.628 5.482-1.174 8.485.424 2.836-1.787 5.503-.829 8.318-.681.978-2.093.405-2.507 1.61-.474-.454-.928-.879-1.491-1.422-.207-2.371.494-5.038-1.313-7.231-2.625-.504-4.372-2.351-6.11-4.189h-7.097c-1.382-2.825-3.83-4.485-6.623-6.016-3.109-1.699-5.843-4.08-7.857-5.522-4.017-2.154-1.234-6.085-4.126-8.19h-4.827c-1.155-.918-1.648-1.758-1.609-3.082.119-3.773.04-7.557.04-11.252-2.873-4.149-7.522-6.203-10.759-9.799 1.194-2.44 4.303-2.648 5.725-5.167-2.507-1.778-3.781-4.781-6.021-7.014-2.034-2.025-4.699-3.507-5.824-6.5 3.277-1.64 5.202-4.732 8.084-7.073-.898-2.253 1.224-4.041.957-6.382-.227-2.005-.542-4.188.928-6.006-.246-3.823.523-7.676-.937-11.469-1.649-4.278-2.606-8.792-3.929-13.178-1.54-5.108-4.205-8.783-9.229-11.015-3.218-1.423-6.455-2.677-9.723-3.962-4.945-1.936-9.416-4.85-13.098-8.673-2.902-.682-5.301.444-7.65 2.074-8.903-5.858-18.794-9.69-27.914-14.966-2.063-1.195-4.452-1.472-6.594-1.857-4.58-.83-9.051-2.223-13.582-2.914-3.237-.494-6.505-1.749-9.92-1.235-1.421.207-2.724-.188-4.067-.9-1.194-.641-2.675.1-4.185-.631-1.875-.9-4.244-1.186-6.317-1.294-8.173-.445-15.823-3.073-23.551-5.236-3.03-.85-5.953-1.61-9.111-1.857-6.772-.534-13.513-1.383-20.729-.761-.345.444-.957 1.215-1.421 1.808H51.673c-3.731 3.28-3.672 3.31-6.455 9.108-.593 1.245-1.58 2.756-3.12 2.647-1.332-.088-2.053.83-3 1.216-1.066.434-2.488.632-3.14 1.837h-7.155c-.869-2.104.108-4.436-.543-6.767H11.322c-1.668-1.847-3.652-2.43-5.755-2.065-2.063.356-3.465-1.57-5.567-1.057v-2.588c3.425-3.428 6.89-6.945 10.414-10.402 5.33-5.246 11.47-9.632 16.276-15.55h5.35c3.9-1.372 5.064-5.205 7.226-7.991C40.47 8.318 41.9 7.192 42.78 5.947c1.53-.099 1.668 1.047 2.447 1.264v9.731c.928 2.094 2.597 1.926 3.998 1.808 1.718-1.72 3.327-3.34 4.797-4.811h3.653c2.18 2.38 4.836 4.663 8.863 3.734.889 1.778 2.823 2.005 4.166 3.072 1.293.346 1.46-2.015 3.07-.711V13.89c1.154-2.391 3.277-3.102 4.688-3.784 2.004-.82 2.675 1.324 4.106.75 2.596-.335 3.978-2.44 5.676-3.96 1.658.098 3.297-.228 5.172.503 1.974-1.225 4.481-2.677 5.567-5.591 3.416.701 6.318 2.558 9.387 2.924 3.139.375 6.17 2.005 9.634 1.008.395-.405.967-.998 1.303-1.344l7.176 7.182c3.336.444 5.538.504 7.67-1.69.355-3.022-3.208-4.9-3.988-8.03.079-.9 1.007-1.176 1.451-1.858h1.974c.819.711.642 2.104 2.073 2.855h10.877c.208 2.598 3.297 3.19 3.495 5.789 1.53.523 3.079 1.175 4.698 1.57 3.346.83 5.863 2.786 8.222 5.226 3.672 3.804 6.86 7.982 10.226 12.013 2.399 2.865 6.16 4.771 10.128 5.038 3.178.217 5.774 1.462 7.906 3.527 1.076 1.047 2.586 1.235 3.603 2.519 2.379-.376 4.856.395 7.403-.89 1.313-.661 3.603-.79 4.797 1.245.165 5.098 2.349 8.918 6.554 11.46 1.106 0 2.261.109 3.396-.02 4.728-.553 8.883.909 13.138 2.875 3.987 1.837 7.837 4.02 12.141 5.265 2.418.701 4.52 2.539 6.939 3.981.454 1.176 1.648 2.371 1.372 4.14 2.073 2.123 4.057 4.01 7.373 4.702 2.695.563 4.995 2.904 7.551 4.317 1.333.73 2.586 1.63 4.353 1.472 2.083-.188 2.636 2.726 4.758 2.904.967 0 1.944.099 2.892-.02 6.475-.77 12.388 1.354 18.369 3.32 3.909 1.284 7.877 2.588 11.638 4.1 4.955 1.985 10.147 3.378 14.954 5.58 3.623 1.66 7.413 2.777 11.065 4.278 4.698 1.927 8.38 5.048 11.638 8.891-1.669 2.262-3.386 4.613-5.429 7.399-2.231.652-4.797-.622-7.117-1.501-4.027-1.512-7.995-2.687-12.585-2.371-.583.721-1.303 1.62-2.28 2.825v4.297c-1.708 2.104-4.008 1.709-6.189 1.719-3.623.01-7.235 0-11.046 0-1.075 1.146-2.013 2.282-2.753 4.05-1.511 3.636-2.902 7.488-5.943 10.65 2.004 2.983 3.88 5.947 6.801 8.436 3.031 2.578 6.12 5.236 8.321 8.802a16.615 16.615 0 0 0 5.903 5.641c1.096.612 1.984 1.59 2.843 2.302l.019.029ZM515.517 479.207l-1.886 1.887H498.48v10.659c-5.449 1.333-10.809 2.647-16.455 4.03-1.914-.701-2.082-2.993-1.273-4.257 1.135-1.788.533-3.409.8-4.94-.405-.671-1.106-.336-1.362-.583-1.303-1.244-2.498-2.598-3.741-3.931h-5.558c.208-2.095-1.776-3.487-1.085-5.434-4.097-2.064-8.312-1.353-12.674-1.491v15.164c-4.018 3.358-6.653 8.1-12.023 9.868v8.664c-3.129-.425-6.07.533-9.022-1.008-1.253-.652-2.803.099-3.978.939-1.915 1.353-3.681 1.304-5.626.01-1.253-.83-2.724-1.354-4.304-2.104-3.899 2.934-6.573 7.438-11.38 10.017h-8.094v6.401c-2.577.701-4.807 2.223-7.492 1.195-1.234 1.867-2.32 3.576-3.485 5.226-1.668 2.361-3.662 4.317-6.11 5.977-3.138 2.134-6.524 4.06-8.755 7.35-.493.731-1.115 1.679-2.369 1.462-1.017-1.196-.632-2.164.286-3.349 1.323-1.699 2.251-3.705 3.574-5.404.73-.938.503-1.778.464-2.904h-5.123c-3.988-3.478-3.662-8.269-4.837-12.359l2.073-2.074v-4.386h-8.144l-2.714-2.717c.188-5.127 1.885-9.681 5.666-13.395 3.05-3.004 6.07-6.026 9.061-9.089.898-.919 1.806-1.768 3.109-2.065v-7.893c2.251-.77 3.583-2.657 5.133-4.238 1.451-1.471 3.81-1.788 4.738-3.961-.355-1.857 1.648-3.349 1.036-5.423-.572-1.937.405-3.744.997-5.493 1.076-3.161 2.448-6.224 3.623-9.355.267-.721.276-1.541.474-2.707 2.458.583 4.728-.761 7.176-1.067 4.382-3.023 5.054-7.992 6.435-12.585.968-3.211 1.313-6.609 2.784-9.504-1.125-2.39-1.214-5.324-3.721-6.826v-22.859c.385-.968 1.668-.346 2.329-1.304 2.142-3.102 5.627-4.752 8.331-7.3 2.616-2.47 6.298-3.211 9.762-3.695 5.143-.711 10.167-2.43 15.458-2.065.444.03 1.007-.029 1.352-.266 2.823-1.986 6.1-2.767 9.782-3.438 2.645 1.531 3.405 5.008 5.152 7.695 1.363 2.095 2.833 4.288 3.218 7.073.247 1.798 1.352 3.863 3.771 4.238 3.346 3.428 7.442 5.977 11.164 8.921 4.501 3.566 9.041 7.201 13.927 10.293.543.346.938.919 1.431 1.403-1.786 3.468-4.056 6.658-5.34 10.472-1.559 4.623-1.707 4.445.168 9.118 1.599 3.961 4.284 7.152 6.525 10.481 2.576 0 5.083.405 7.383-.118 2.231-.504 4.264-1.868 7.048-1.621v8.822c4.372 1.768 8.094 4.287 11.953 7.33.434 2.608-.651 5.236-1.717 7.735-1.363 3.221-1.343 6.668-2.764 10.758v.02Z" fill="#E53935"/><path d="M415.359 227.774c.72 3.111 3 4.732 4.846 6.707-1.076 2.49-4.244 2.618-5.626 5.236-.039 1.018-.069 2.233.553 3.705.947 2.242 1.599 4.731 1.342 7.369-.266 2.776-.059 5.591-.059 8.525-1.53.356-2.665 2.114-4.6 1.324-.77-2.055-.177-4.188-.316-6.283-.138-2.203-.069-4.327-.868-6.549-.681-1.887-.138-4.209-.138-6.342l-4.896-4.9 3.81-3.813c.681-2.628-.217-5.226-1.362-7.242-1.284-2.252-1.491-4.415-1.501-6.52-1.056-1.481-1.648-2.795-2.063-4.386-1.214-4.741-2.467-9.503-3.958-14.156-1.648-5.157-3.001-10.323-4.037-15.638-.424-2.193 0-4.742-1.007-6.421-1.283-2.134-.217-4.149-.987-6.026-2.823-6.273-8.054-10.985-11.124-17.189-1.846-.573-3.238.691-4.6 1.6-5.31 3.517-10.473 7.251-15.803 10.729-1.214.79-2.527 2.064-4.422 1.225-.829-1.482-1.826-3.112-1.254-5.216-4.836-1.7-9.643-2.816-14.776-2.569-1.648.079-3.178.484-4.481 1.136-4.087 2.055-7.995 4.426-12.22 6.253-2.655 1.146-5.024 2.954-7.837 4.663-.583-4.801-.06-9.474-.297-14.205-1.233-2.47-2.665-4.851-5.577-5.928-.7-.257-1.302-1.037-1.747-1.709-3.04-4.603-6.909-8.347-11.45-11.479-2.3-1.58-2.734-4.416-4.175-6.747 2.093-3.704 3.958-7.369 5.538-11.321 5.389-2.282 11.144-.425 17.174-1.284.356-.573.968-1.561 1.57-2.539l.651.474v-5.157c2.132-2.361 4.561-1.758 6.841-1.017 3.178 1.027 6.436 2.025 9.328 3.625 1.451.801 2.704.741 4.195.87.957-1.591 2.872-2.341 3.484-4.465.513-1.769 1.777-3.349 3.386-4.396h2.961c1.905 1.965 3.682 4.04 6.386 4.899 2.636-.899 4.432-3.358 7.245-3.951 4.008-3.823 8.914-4.317 14.046-3.853l2.251 2.253v13.01c5.024 6.046 10.186 12.259 15.497 18.641 1.846-1.185 3.099-2.657 5.873-3.428 1.214-.089 3.484-.118 5.271 1.462 1.066.948 2.171.514 3.237.534 5.084.059 10.167.029 15.675.029 1.757 4.88 2.675 10.037 3.899 15.095 1.204 4.969 3.366 9.76 2.961 15.292h5.172c2.567 3.221 7.058 3.171 9.555 6.698v3.902c.444.227.711.484.987.484 1.807.04 3.633.138 5.419-.02 1.244-.108 1.698.761 2.488 1.423v4.07c-.8 1.027-1.58 2.203-2.103 3.813-.839 2.608-.928 4.604.06 7.202.858 2.262 1.776 4.811 1.125 7.438 1.865 5.365.493 10.936 1.046 16.369.306 3.073-.888 5.651-2.428 7.884-2.122 3.062-3.563 6.46-5.508 9.592-1.629 2.618-3.178 5.275-4.945 8.229-.099 3.378.553 7.3-1.885 10.6-1.836.859-3.278.247-4.985-.386-1.589-.582-3.573-.128-5.459-.128-1.549 1.61-3.139 3.27-4.629 4.821h-7.709c0-3.369-.197-6.639.059-9.879.257-3.29-1.796-5.947-2.102-9.217 2.665-.958 4.106-3.329 5.972-4.929.286-3.448-2.133-5.048-4.146-7.241 2.379-2.895 4.274-6.204 7.196-8.634-.593-2.589 1.52-4.663.937-7.133-1.5-6.381-.898-12.882-.987-19.342 0-.652-.227-1.166-.523-1.769-1.224-2.479-.691-5.137.592-7.241 2.557-4.198 5.054-8.397 6.9-12.961.158-.385.572-.671.869-1.007-.721-.83-1.609-.247-2.547-.494-2.172 5.384-5.241 10.323-7.867 14.857-1.412 4.051.77 7.35.622 10.887-.148 3.447.128 6.925-.109 10.363-.089 1.343 1.145 1.738 1.155 3.052.069 5.75-1.648 10.758-5.399 15.075-1.076 1.235-2.31 2.341-3.642 3.675l-.02.02ZM342.641 327.904c-1.263-4.02-5.833-5.512-7.462-9.602h9.259c4.758-3.773 7.354-9.059 11.736-12.447.109-2.687-1.194-4.416-2.931-5.996.177-1.818-.83-3.932 1.411-5.394h21.222c.316 1.679-1.254 2.845-1.056 4.505.148 1.215-.701 2.617-1.708 3.684-1.066 1.136-2.951 1.907-1.925 4.11 1.787.454 2.833 2.173 4.186 3.329 4.53-2.875 9.308-4.613 14.924-3.704 1.757 1.541 1.175 3.862 1.471 6.016.454 3.319 1.007 6.589 1.026 9.967.02 2.322-.503 4.624-1.539 6.283-1.501 2.42-1.501 4.781-1.511 7.301-.019 3.625 0 7.241 0 10.866 0 2.806-1.431 7.034-2.763 10.215-.543 1.294-1.333 2.143-2.202 3.032-3.346 3.409-6.731 6.767-10.265 10.304-1.757-.217-3.524.395-5.172 1.255-3.564 1.857-6.88 4.435-11.283 3.754-4.165 1.946-8.459.671-13.542.898a61737.07 61737.07 0 0 0 14.52-21.693c-.03-2.974 4.145-4.09 4.086-7.38 2.053-1.956 3.573-4.188 4.126-7.27h-8.045c-1.826-.998-3.267-2.342-5.32-2.095-3.129-2.509-5.429-5.957-8.864-8.219-.355.593-.513.86-.928 1.541 2.656 2.658 5.064 5.937 8.272 7.982 2.28 1.462 5.241 2.549 8.242 2.658 1.106.039 2.27-.336 3.731.533-3.988 5.888-8.035 11.697-11.815 17.663-3.761 5.928-8.321 11.4-11.529 18.345h15.231c2.349-2.055 5.448-.464 8.153-1.808 2.26-1.126 4.501-2.608 7.057-3.171 1.106.958-.612 1.136-.434 1.857.257 1.048-1.333 1.413-.987 2.559.286.939-.898 1.531-.879 2.055.069 1.926-2.201 1.64-2.665 3.319-.365 1.324-.592 3.26-2.398 4.129-1.254.603-2.142 1.838-3.189 2.776-2.467 2.223-5.28 4.406-4.58 8.723-4.659 3.398-9.673 6.411-14.766 9.247-1.037-.484-2.132-.771-2.932-1.433-1.391-1.146-2.586-2.529-3.958-3.892-.602-1.294.612-3.29-1.717-4.436h-7.867c-2.419 4.604-5.538 9-7.561 14.394 3.089.395 5.912-1.709 8.814-.435.336 4.544.02 5.433-2.606 6.994v3.043c1.185 1.067 2.517 2.262 3.959 3.566-1.777 2.855-3.031 5.651-5.646 7.883h-9.802l-1.323 1.324v8.802c.652 1.235 1.362 2.578 1.974 3.744-1.329 3.504-3.662 6.925-6.998 10.264-.543 2.707 2.448 4.376 2.063 7.034 1.402.918.829 2.351.869 3.586.128 4.475 1.52 9.167 4.422 12.476 2.438 2.776 4.175 6.175 7.344 8.229v4.564c-1.767-.138-2.34 1.522-3.88 2.332-2.319-1.936-4.511-4.258-7.975-6.095h-2.231A24352.33 24352.33 0 0 0 295.4 473.23c-1.707-.899-2.615.751-3.81 1.867h-3.968c-1.668-1.264-2.714-3.526-4.994-3.477-.612-2.993-2.024-5.265-1.343-7.962 1.599-1.482 2.892-3.191 2.863-5.641-.03-1.867 1.056-3.22 2.309-4.465 2.557-2.539 5.094-5.098 7.69-7.696-2.715-5.719-5.538-11.202-11.046-15.085-.108-1.254 1.264-2.054 2.221-2.637 4.324-2.638 7.926-6.194 11.993-9.158.129-.098.217-.276.356-.336 4.066-1.709 5.33-5.038 5.201-9.118-.039-1.383.751-2.578 1.461-3.299 1.056-1.077 1.205-2.618 2.517-3.665v-5.325h5.39c.483-1.284 1.826-.81 2.685-1.867-2.172-2.884-4.413-5.848-6.792-9.009-4.678-1.126-9.663-2.667-15.023-2.006v-15.727h7.66v-16.517c1.875-.879 3.593-1.244 4.767-2.618.053-1.521-.47-2.911-1.569-4.168v-3.369h4.333c1.589.82 3.228 1.669 5.321 2.756 2.112.455 4.461-.109 6.801-2.084 5.349 1.6 8.291-2.401 11.509-5.75 2.458-.306 4.54 1.818 7.136.751.326-.484 1.244-.771 1.372-2.134-1.796-2.015-3.711-4.267-6.83-4.761v-4.228c1.056-1.917 2.635-1.472 4.086-1.502 1.757.632 2.182 3.428 4.817 2.924-.217.514 0 .81.454.909.079.02.306-.217.286-.287-.098-.454-.404-.671-.612-.661v.019Z" fill="#E53935"/><path d="M341.694 227.191c-.237 1.225-.642 2.045-1.856 2.954-1.253-.435-3.01.879-4.59-.662a1.173 1.173 0 0 0-.858-.277c-4.877.701-9.536-1.452-14.392-1.017-4.343.385-8.499-1.354-12.911-1.136-2.063.098-4.165-1.68-6.317-2.431-3.889-1.343-7.423-3.507-11.411-4.643-.691-.197-1.362-.632-2.181-.681-7.097-.425-14.145-1.709-20.126-.879l-23.226-9.583c-.178-.849-.731-1.976-2.142-2.549 0-1.886.03-3.674 0-5.453-.109-5.146-1.609-10.194-.997-15.391.089-.79.01-1.59.01-2.104 1.599-2.361 3.682-1.383 5.439-1.541 1.924 1.433 1.678 3.705 2.378 5.542.306.8.593 1.531 1.224 1.946 4.383 2.875 8.805 5.69 13.415 8.654.691 1.393 1.145 3.26 2.912 4.722 1.914-1.67 4.362-1.018 6.8-1.156 1.481 2.361 4.403 3.102 6.298 5.473v5.937c2.793 2.934 5.34 1.087 8.015.109-.8-4.653.839-9.02 1.145-13.495.257-3.763 1.688-7.567 1.846-11.617 7.413.642 14.796 1.294 22.239 1.936.868-4.327 2.457-8.13 3.74-12.042.968-2.944 3.534-3.744 5.814-4.91a392.478 392.478 0 0 0 12.931-6.875c4.521-2.519 9.298-3.883 15.063-2.727 1.204.682 2.892 1.769 5.152 1.917-.355 1.936 1.431 3.368 1.185 5.512h6.277c6.239-4.435 12.437-9.098 19.643-12.902 1.856 2.658 3.771 5.256 5.478 7.992.316.504.484 1.186.987 1.541 2.359 1.68 2.902 4.426 3.722 6.856.839 2.48 1.174 5.236 1.194 7.874.02 2.272.474 4.386 1.096 6.5 1.717 5.878 3.109 11.884 5.093 17.643 1.599 4.643 2.774 9.385 4.086 14.067.869 3.093 2.932 5.859 2.685 9.286-.039.573 1.056.761 1.007 1.137-1.51 1.442-2.784 2.657-4.6 4.405h-1.885c-1.372-1.511-3.218-1.62-5.083-2.054-7.236-1.709-14.55-.544-21.805-.88-1.224-.059-2.389.297-3.632.682-3.682 1.146-7.591 1.551-11.411 2.252-.612.109-1.342-.335-1.826.346-.72 1.018-2.28.939-2.576.514-1.086-1.531-3.08-.366-4.244-1.966-1.639-2.233-3.949-3.951-5.804-6.026-.83-.929-1.728-.711-3.011-.79l.01-.01ZM553.539 467.402c-3.662-2.42-5.084-6.323-8.371-9.029-3.8 0-7.906.286-11.953-.079-3.939-.356-7.551 1.639-11.539.987-3.474-2.963-7.235-5.749-11.47-8.485v-7.814c-3.405-1.522-6.643-.04-9.377.908-2.813.978-4.797.396-7.107-.503-1.204-3.092-3.119-5.72-5.251-8.368v-6.856c1.569-4.88 4.827-8.001 6.041-12.081-1.264-2.618-3.8-3.537-5.607-5.246-1.865-1.768-4.323-2.736-5.932-4.83-1.461-1.887-4.047-2.194-5.616-4.367-1.323-1.818-4.205-2.539-5.962-4.337-1.787-1.827-3.968-2.993-6.357-4.544-.721-2.064-2.784-4.109-2.26-7.014-1.649-1.333-1.994-3.576-3.238-5.028-1.688-1.966-2.349-4.347-3.938-6.718 2.754-1.234 5.063-3.171 8.271-2.548 1.076.207 1.747-.484 2.577-.939.631-.345 1.608.237 2.25-.494.02-.642-.138-1.363 1.096-1.58 1.855.365 2.448 2.618 3.859 3.833 1.431 1.235 2.744 3.032 3.939 4.692 1.204 1.679 2.882 3.132 3.741 4.86.996 2.026 3.168 2.944 3.879 4.792.829 2.153 2.675 3.082 4.027 5.038 3.652-3.25 7.146-6.155 7.373-11.371 3.139 2.421 6.1 4.712 8.835 6.817 4.994-1.324 5.34-6.254 7.748-9.583 2.468.682 4.235 2.816 6.683 2.747 1.737-.05 1.036 1.551 1.964 2.183 2.053 1.422 4.55 1.847 6.485 3.576 3.139 2.815 5.152 6.461 7.354 9.869 1.085 1.679 3.405 2.588 3.346 4.88 4.027 2.035 8.301 3.339 11.953 5.967.671.484 1.866.256 3.287.405 1.698 1.995 4.017 3.921 7.285 5.69h6.88c3.316 1.975 6.573 3.28 10.314 3.092 2.626-.129 5.262-.03 8.065-.03 1.628 3.803-1.56 7.409-.395 11.558 2.389 1.265 3.267 4.386 5.676 6.303 2.369 1.887 5.656 1.818 7.906 4.376-.829.83-1.569 1.907-2.586 2.499-1.214.712-.948 2.599-2.162 2.836-1.431.286-1.826 1.788-2.734 2.143-5.37-1.175-10.364-2.272-15.477-3.388-4.363 5.028-7.719 10.501-11.559 15.638v6.154c-3.632 2.648-8.183 2.273-11.933 3.389h-.01ZM429.188 378.839c-1.609 2.371-4.492 1.936-6.752 2.312-2.695.444-4.679 1.422-6.633 3.19-3.534 3.191-7.255 6.165-11.016 9.326-.069 3.695.415 7.735-.385 11.499-.779 3.695-.661 7.31-.868 10.916.671 1.106 1.125 2.361 1.984 3.171 2.28 2.163 2.487 4.979 1.905 7.557-1.047 4.594-2.596 9.098-4.166 13.554-1.125 3.191-2.408 3.882-7.778 5.206-6.287-4.693-12.279-9.988-19.406-13.86 1.274-2.005.889-4.189 1.738-6.164.671-1.571 1.125-3.152 2.29-4.495.888-1.028 1.697-2.243 1.737-3.695.02-.711.187-1.215.72-1.689 3.208-2.914 4.176-7.142 6.199-10.758.138-.247.02-.652.02-1.551-.78-.435-1.925-1.087-3.08-1.729.188-.178.366-.365.553-.543h-3.928c-1.224 1.541-2.912 2.341-4.709 2.944-6.356-1.304-12.397-4.07-19.07-4.05-.977-2.055-.237-3.517 1.264-5.108 1.658-1.758 2.832-3.862 5.113-5.156 1.579-.899 2.675-2.589 3.612-4.347 1.441-2.697 3.228-5.206 4.106-8.18 1.264-4.257 4.65-6.895 7.769-9.543 1.875-1.59 3.899-3.22 5.251-5.087 1.569-2.163 4.373-3.388 4.728-6.392 1.254-7.28 1.668-14.699 1.283-22.128-.089-1.699 1.767-2.786 1.046-4.524 3.554-5.108 1.866-10.59 1.145-16.379 3.85.474 7.354-.583 10.532-3.181v-8.931c1.037-1.274 1.985-2.133 3.544-1.679 1.994 1.205 1.945 3.793 3.563 5.512-.651 4.525 1.53 8.713 2.409 13.129.928 4.663 2.25 9.247 3.494 13.84.928 3.408 2.162 6.856 2.527 10.244.572 5.325 2.626 10.205 3.613 15.392.967 5.067 1.954 10.234 3.583 15.232.622 1.897 2.3 3.389 2.053 6.125l.01.02ZM184.385 318.688c.375-4.653 3.365-7.518 6.465-10.413h10.463c4.461 3.241 8.785 6.382 13.375 9.721h7.363c.336.474.829 1.61 1.678 2.292 1.323 1.047 2.774 1.877 4.679 1.808 3.938-.139 7.887-.04 11.963-.04 3.534 4.643 8.538 7.824 12.832 11.766 2.458 2.262 5.064 4.435 7.699 6.925h6.801c2.576 1.728.967 4.791 3.524 6.905 4.432-.385 9.446-1.956 14.569-2.717 5.251-.79 10.226-2.746 16.168-2.736.721.444-.671 1.788-.177 2.311.414 1.719 2.28 2.006 2.112 3.764-1.165.534-2.389 1.107-3.81 1.759v16.339h-8.933v16.33l-1.579 1.58h-4.946c-2.003-2.252-4.945-3.25-7.294-5.235v-7.844c.987-1.946 2.023-3.981 3.346-6.579-3.168-.168-5.893-.05-8.834-.099-.839 1.007-1.777 2.134-2.853 3.408-3.109-2.144-6.258-2.964-10.107-2.203-.632.79-1.54 1.926-2.192 2.736-2.823-.049-4.935.119-7.166-.81-1.55-.652-3.474.81-5.133 1.601-3.02 1.432-6.031 2.894-9.189 4.406-.948-5.582-1.876-10.936-1.283-16.705-3.643-.662-6.683-2.687-10.355-3.537-3.257-.751-6.435-2.618-9.624-3.872-2.408 2.736-3.533 5.848-4.185 9.177-1.915-.227-2.507-1.758-3.622-2.638v-10.096h-6.525c-4.096-2.213-6.475-5.581-10.167-7.142-4.017 1.986-8.301.474-12.358 1.097-.809-1.502-2.991-.86-3.356-2.925.918-3.497 1.925-7.359 3.07-11.726 1.026-.8 1.925-2.499 3.701-3.23 1.728-.721 2.577-2.401 3.889-3.369l-.009-.009Z" fill="#E53935"/><path d="M424.104 297.685c6.564-.642 9.97-4.909 14.629-7.102 1.095 1.175 2.319 2.469 3.563 3.793 4.55.138 8.449-1.008 11.549-4.357.227-.237.582-.424.681-.701 1.342-3.783 4.175-6.777 5.636-10.511 13.385-.79 21.439-.494 25.348 1.067 0 3.764.671 7.814-.148 11.538-1.422 6.481-.326 12.932-.869 19.353-.711 8.377 1.708 16.142 4.274 23.896.138.415.731.573.711 1.196-.049 1.808-.02 3.615-.02 5.512-2.714 2.302-6.297 3.586-8.726 6.856v9.108c6.515 2.104 12.191 5.838 16.82 10.857 4.61 1.304 8.933-.82 13.059-.711 2.675 2.143.78 4.178.721 6.233-.06 2.134-1.205 3.932-1.165 5.196l-5.172 5.177c-2.261-3.162-6.791-4.149-8.973-7.666-1.421-.237-1.836.849-2.586 1.422v5.829c-1.56 1.501-3.07 2.973-4.777 4.623-2.823-5.819-8.43-9.652-11.233-15.569-2.813-.128-1.639-4.238-4.413-4.416-.996-2.124-2.497-3.921-3.74-5.868-1.224-1.916-2.833-3.625-3.534-5.917-.553-1.818-2.922-2.489-3.179-4.594-3.543-2.835-5.251-7.073-7.432-10.767-1.935-3.29-4.511-5.977-6.643-9.01-2.961-4.188-4.935-8.999-8.37-12.842-2.833-3.171-4.462-7.212-7.522-10.215-.464-.454-1.115-.859-1.323-1.422-1.342-3.547-3.484-6.56-7.146-9.968l-.02-.02Z" fill="#E53935"/><path d="M458.158 182.796h7.147c.503.504.967.968 1.441 1.432v11.795c.681 1.502 2.507 1.354 3.435 2.51h3.879c1.076.691 1.55 2.212 3.129 2.074 1.184 2.648 1.688 5.404 1.362 8.269 1.757 1.195 3.652 1.758 5.705 1.58.958 4.535-.276 8.753-.937 12.734 2.26 2.924 3.879 5.927 7.018 8.061 3.691-.148 5.922-3.843 9.722-5.186.533 2.489.099 4.909.306 7.527 2.478 3.349 7.285 4.189 9.614 7.962-1.451.82-2.971 1.976-5.172 1.324-1.54-1.175-3.08-2.855-5.488-2.825-3.218.039-6.001 1.284-8.479 2.973-2.813 10.966-4.225 21.981-5.518 33.262.089-.099 0 .04-.128.128-.118.089-.276.178-.415.178h-25.693c-2.132 3.468-3.968 7.044-6.011 10.472-1.056 1.768-2.073 3.072-3.929 3.675-1.737.563-3.277 1.788-5.537 1.639-2.744-2.321-4.758-5.492-6.791-8.673-.987-1.551-.948-2.806.01-4.406 1.283-2.144 2.369-4.396 4.274-6.164 0-3.576.138-7.202-.05-10.808-.108-2.015.533-3.694 1.412-5.364 1.54-2.914 2.961-5.878 2.566-9.286-.296-2.578 1.106-4.761 2.428-6.352 2.922-3.526 4.195-7.932 7.028-11.508 1.303-1.64 1.382-4.387 3.396-6.056 0-5.661.316-11.43-.129-17.14-.246-3.181-.651-6.441-1.697-9.602-.602-1.817-.454-3.981-1.066-5.976-.543-1.779.533-3.527 1.796-4.584 1.254-1.047.879-2.322 1.392-3.675l-.02.01ZM179.508 322.046h-2.467c-.81.81-1.619 1.63-2.448 2.47.602 3.872-3.179 6.945-2.162 9.78-.78 5.66-5.597 4.228-7.561 6.638a1811.614 1811.614 0 0 1-4.935-4.959h-19.386c-1.866-2.242-3.958-3.961-6.367-5.275v-12.279c.879-.711 2.024-1.64 2.882-2.341v-7.459c-2.635-1.867-4.066-4.86-6.031-7.142-.552-.079-.868-.188-1.174-.158-5.35.513-10.157-.909-14.767-3.636-2.744-1.63-5.804-2.716-8.607-4.573v-8.279c-1.451-.464-3.119-.109-3.879-1.808 1.964-2.39 4.807-3.704 7.383-5.354l3.889 3.892c.76 0 1.58-.01 2.389 0 3.336.069 6.623.168 9.969.82 3.198.623 6.377 1.047 9.545 1.966 1.846.534 4.156 1.363 5.913.988 3.504-.741 7.245.039 10.384-1.057 3-1.047 5.675-.04 8.38-.939.79 3.893 2.28 7.172 2.399 10.719 1.628.731 3.306 1.156 4.501 2.479.217.247.473.682.691.672 4.619-.237 7.343 3.695 11.213 5.088 1.411.504 2.685 1.383 4.175 1.165.059.741.079 1.057.118 1.66 1.58.504 4.028-.642 4.867 1.946 0 1.304-1.283 1.719-1.965 2.578-.602.761-1.707 1.314-1.944 2.154a24.66 24.66 0 0 1-4.975 9.296c-.158.188-.02.642-.02.968l-.01-.02ZM458.889 491.427v-14.216c2.842-.01 5.665-.632 8.854 1.453 1.095 1.066.325 3.803 2.398 5.314h4.866c1.007 1.235 2.044 2.49 3.504 4.278v6.737c.445 1.314 1.896 1.6 2.083 3.171-1.905 1.798-2.783 4.455-4.126 6.876 1.017.918 2.478.978 3.09 2.272v9.819c1.036 1.166 2.507.069 3.997.899-.829 3.033 1.047 5.927.968 9.118-.079 3.28-.02 6.56-.02 10.165-1.629-.187-2.932.741-4.6 1.324-.404 3.547-4.047 5.809-4.491 10.363-5.676-9.385-11.006-18.039-16.612-26.307h-7.69c-2.586 4.92-6.662 9.158-6.09 15.49h-6.544c-1.806-1.778-4.343-3.043-6.929-4.732h-6.09c-5.035 0-9.417-2.667-11.747-7.152-.276-.534-.414-1.136-.621-1.739-2.705 0-5.331 0-7.946-.01-.129 0-.247-.178-.484-.355v-5.562h8.272c.118-.109.237-.227.355-.336l9.417-9.424c2.605 2.035 4.925 3.507 8.834 2.321 3.662-1.116 7.926-1.254 11.835.346 1.382.563 2.497.138 3.534-1.284v-6.836l11.983-11.993ZM469.786 365.483c-1.866 1.057-3.021 1.699-5.093 2.875-2.893-.247-6.614 1.679-10.157 3.981-2.083 1.353-4.294 2.252-6.604 3.151-2.813 1.097-5.991 1.561-8.331 3.833h-7.956c-1.352-4.307-3-8.594-3.997-13.03-.78-3.467-1.431-6.964-2.349-10.402-1.195-4.436-1.886-9.01-3.623-13.317a19.405 19.405 0 0 1-1.283-5.384c-.474-5.127-2.379-9.928-3.445-14.916-.415-1.937.197-4.071-.681-5.592-.967-1.689-1.55-3.517-1.718-5.196a34.012 34.012 0 0 0-2.536-9.849c-.681-1.601.552-3.774-1.54-4.752.691-1.492 2.527-1.333 3.405-2.45 1.826 1.452 4.462 1.65 5.784 3.823 1.155.06 2.261.109 3.356.158 3.899 5.384 7.137 11.074 11.075 16.3 2.33 3.102 4.511 6.342 6.683 9.563 2.171 3.23 4.155 6.549 6.584 9.632 3.059 3.882 5.419 8.308 8.4 12.309 3.158 4.237 5.715 8.92 9.14 12.98 1.619 1.917 1.599 4.791 4.866 6.273l.02.01ZM400.918 265.58c-3.396 1.027-6.357-.85-9.555-1.038-2.013-.118-3.988-2.163-5.814-3.566-1.243-.958-2.438-2.005-3.612-3.072-2.873-2.598-6.673-3.646-10.236-4.9-1.491-.524-2.892-1.008-4.245-2.045h-4.57c-2.704-1.976-5.448-3.675-7.571-6.49v-6.105c3.021-1.038 6.021-2.608 9.328-2.174 1.797.237 2.823-1.304 4.531-1.155 1.332.118 2.961.76 4.096-.722 6.683-.019 13.365-.049 20.048-.069 2.586 1.689 5.952 1.512 8.38 3.497.789.642 1.589.02 2.714.692 1.362 1.383 3.09 3.131 4.965 5.028v17.041a48.012 48.012 0 0 1-8.459 5.078Z" fill="#E53935"/><path d="M399.072 267.763h3.8c.208-.129.366-.188.454-.307 1.886-2.202 4.817-2.805 7.028-4.573.889-.702 2.725-.781 3.968-.919 4.057-.464 8.203-.178 12.319-.178 1.589-1.65 3.178-3.309 4.363-4.544 3.494-1.126 6.13.257 8.903.79-.049.949-.928 1.442-.859 2.519.198 3.112.07 6.253.07 9.375 0 2.055-.405 3.537-2.448 4.94-1.876 1.294-2.438 4.129-3.564 6.638 1.303 2.005 1.886 4.683 4.156 6.569-4.965 3.833-9.338 8.674-16.297 8.308-.799-.721-1.421-1.59-2.26-1.975-6.406-2.924-11.144-7.755-15.043-13.406-1.411-2.045-2.547-4.248-4.225-6.144-2.369-2.668-2.369-4.406-.365-7.113v.02ZM355.256 278.135c-.049-3.595-1.51-6.678-2.645-9.849-.662-3.665-.701-7.3 2.586-9.997-.494-1.284 1.155-1.709 1.105-3.053-.059-1.471.83-2.953 2.34-4.257 2.043 2.292 4.886 1.926 7.64 1.906 2.536 1.067 4.57 3.379 7.659 2.964.82-.109 1.017.691 1.56.998 3.257 1.837 6.643 3.418 9.259 6.283 1.905 2.084 4.402 3.497 7.363 3.556 1.362.03 2.182 1.126 3.445 1.363v4.288c-1.599.316-2.744 1.788-4.501 1.323-1.204-.316-2.211.751-2.892 1.245-3.218 2.381-6.1 5.433-7.137 9.276-.602 2.243-2.201 4.041-2.29 6.53-.049 1.502-1.806 2.065-3.425 1.59-4.876-7.112-12.447-10.362-20.077-14.166h.01ZM126.256 217.806c-.671 3.191 2.892 6.579-.681 10.027-.711.148-1.629 1.521-4.244 1.225-.376-.059-.859-1.492-1.965-2.233v-3.181c1.52-.671 2.34-2.469 2.744-3.941.583-2.144.148-4.554.148-6.817-1.895-1.689-2.082-4.178-2.862-6.273-2.32-6.184-7.008-10.007-12.477-12.832-2.487-1.284-5.211-2.776-8.32-2.065v-2.538c1.233-1.048 2.773-.07 4.342-.712.958 1.936 3.12 1.857 4.6 2.885 1.797 1.245 4.254.583 5.636 1.798 1.678 1.472 3.722 1.482 5.449 2.46 1.747.978 3.662 1.481 5.577 2.044 2.191.652 4.067 2.144 6.564 2.134.523 0 1.046 1.541 1.362 2.055 4.235-1.472 7.64-2.707 11.707-2.173.049 1.61.138 3.368.128 5.117 0 2.519.859 4.208 3.149 5.739 5.597 3.735 10.739 8.16 16.356 11.865 3.059 2.015 5.261 4.277 6.08 8.031-.652 1.314-1.254 2.954-2.872 4.159v8.12c-1.57.336-.928-.938-1.175-1.402-1.698-3.201-3.711-5.878-6.88-8.012-3.741-2.529-7.472-5.137-11.302-8.081h-6.209v-4.119c-1.727-2.302-2.487-4.791-4.461-6.609h-6.09c-.731 1.62-2.991 1.699-4.304 3.349v-.02Z" fill="#E53935"/><path d="M402.586 299.967v8.684c-2.487 2.064-5.439 1.472-8.35 1.551-1.343-2.144-.721-5.236-3.386-7.153-1.234 1.522-3.03 1.206-4.768 1.225-2.171.03-5.932 1.216-8.301 2.589-1.866 1.076-2.961.118-4.067-1.729 2.833-2.43 3.771-5.651 3.09-9.177.898-.751 1.362-1.788 2.774-1.532 2.546-6.767 4.086-14.195 11.035-18.789 2.053.78 4.136-1.195 6.534-1.008 3.988 6.856 8.469 13.327 14.678 18.533-2.783 3.122-6.988 3.536-9.249 6.806h.01ZM342.375 327.974c.474-.089.77.128.878.582.02.079-.217.307-.286.287-.454-.099-.671-.405-.582-.879l-.01.01Z" fill="#E53935"/></svg>